<?xml version="1.0" encoding="utf-8"?>
<!-- Generator: Adobe Illustrator 16.0.0, SVG Export Plug-In . SVG Version: 6.00 Build 0)  -->
<!DOCTYPE svg PUBLIC "-//W3C//DTD SVG 1.1//EN" "http://www.w3.org/Graphics/SVG/1.1/DTD/svg11.dtd">
<svg version="1.1" id="圖層_1" xmlns="http://www.w3.org/2000/svg" xmlns:xlink="http://www.w3.org/1999/xlink" x="0px" y="0px"
	 width="1133.86px" height="850.39px" viewBox="0 0 1133.86 850.39" enable-background="new 0 0 1133.86 850.39"
	 xml:space="preserve">
<g>
	<defs>
		<rect id="SVGID_1_" x="242" y="78.854" width="364" height="146"/>
	</defs>
	<clipPath id="SVGID_2_">
		<use xlink:href="#SVGID_1_"  overflow="visible"/>
	</clipPath>
	<g clip-path="url(#SVGID_2_)">
		<g>
			<g>
				<path d="M295.474,149.618c-2.183-12.406-4.396-24.359-6.649-35.822c-0.055,12.228-0.11,24.456-0.166,36.683
					c-0.009,2.031-0.376,3.437-1.099,4.193c-0.723,0.758-1.677,0.911-2.863,0.475c-1.147-0.421-2.082-1.257-2.807-2.478
					c-0.725-1.223-1.088-2.798-1.088-4.744c0-13.284,0-26.567,0-39.851c0-2.197,0.491-3.665,1.478-4.428
					c0.985-0.76,2.317-1.148,3.993-1.139c0.907,0.005,1.814,0.011,2.721,0.016c1.636,0.009,2.824,0.198,3.56,0.576
					c0.737,0.377,1.28,1.055,1.627,2.036s0.74,2.581,1.176,4.814c2.019,10.194,4.012,20.752,5.985,31.651
					c2.171-10.005,4.367-20.371,6.582-31.072c0.479-2.346,0.902-4.052,1.269-5.1c0.367-1.047,0.923-1.774,1.667-2.177
					c0.744-0.403,1.935-0.604,3.572-0.596c0.907,0.004,1.814,0.008,2.722,0.013c1.676,0.007,3.001,0.485,3.975,1.451
					c0.973,0.965,1.441,2.833,1.405,5.59c-0.223,16.645-0.445,33.29-0.667,49.935c-0.032,2.411-0.423,4.13-1.171,5.137
					c-0.749,1.008-1.737,1.336-2.965,0.994c-1.151-0.32-2.088-1.178-2.813-2.553c-0.726-1.376-1.074-3.221-1.045-5.549
					c0.173-14.028,0.347-28.056,0.52-42.083c-2.471,12.801-4.921,25.191-7.344,37.136c-0.474,2.327-0.857,4.008-1.15,5.062
					c-0.294,1.054-0.823,1.934-1.588,2.629c-0.766,0.696-1.814,0.825-3.147,0.396c-1.005-0.324-1.851-0.893-2.541-1.695
					c-0.689-0.802-1.224-1.709-1.603-2.721c-0.379-1.011-0.675-2.086-0.888-3.229C295.916,152.026,295.697,150.842,295.474,149.618z
					"/>
				<path d="M350.75,101.616c4.498-0.002,8.339,1.468,11.528,4.507c3.188,3.038,5.581,7.405,7.175,13.092
					c1.595,5.685,2.352,12.382,2.266,20.011c-0.063,5.639-0.577,10.729-1.542,15.231c-0.966,4.503-2.382,8.319-4.248,11.416
					c-1.866,3.098-4.14,5.301-6.819,6.6c-2.679,1.299-5.731,1.601-9.151,0.929c-3.4-0.668-6.427-2.181-9.082-4.452
					c-2.656-2.271-4.855-5.126-6.601-8.525c-1.747-3.4-3.046-7.277-3.901-11.642c-0.855-4.365-1.25-8.951-1.182-13.816
					c0.069-4.982,0.609-9.497,1.622-13.609c1.013-4.11,2.447-7.616,4.303-10.538c1.855-2.92,4.097-5.189,6.723-6.784
					C344.466,102.443,347.436,101.617,350.75,101.616z M362.78,138.434c0.065-5.241-0.394-9.823-1.373-13.706
					c-0.98-3.882-2.409-6.827-4.289-8.837c-1.88-2.009-4.053-3.03-6.52-3.105c-1.756-0.054-3.386,0.423-4.89,1.41
					c-1.504,0.988-2.807,2.441-3.909,4.352c-1.102,1.912-1.985,4.359-2.648,7.346c-0.663,2.988-1.021,6.353-1.074,10.124
					c-0.053,3.802,0.208,7.276,0.786,10.447c0.577,3.172,1.417,5.873,2.523,8.105c1.105,2.233,2.385,3.998,3.841,5.277
					c1.456,1.279,3.063,2.077,4.822,2.369c2.253,0.374,4.336-0.199,6.251-1.752c1.913-1.551,3.456-4.192,4.623-7.92
					C362.092,148.818,362.71,144.098,362.78,138.434z"/>
				<path d="M385.988,111.548c3.127,16.737,6.28,33.707,9.465,50.835c3.445-16.797,6.863-33.814,10.249-50.975
					c0.529-2.705,0.924-4.588,1.186-5.648c0.262-1.059,0.692-2.014,1.288-2.866c0.596-0.851,1.407-1.278,2.433-1.278
					c0.75,0,1.443,0.332,2.082,0.994c0.638,0.664,1.137,1.546,1.499,2.646c0.361,1.101,0.541,2.212,0.536,3.329
					c-0.003,0.769-0.065,1.598-0.188,2.488c-0.122,0.89-0.273,1.763-0.455,2.617c-0.182,0.855-0.363,1.735-0.545,2.641
					c-3.578,16.694-7.19,33.278-10.834,49.667c-0.391,1.884-0.782,3.67-1.172,5.358c-0.391,1.688-0.84,3.163-1.348,4.423
					c-0.508,1.26-1.181,2.273-2.016,3.035c-0.836,0.762-1.854,1.091-3.053,0.985s-2.211-0.604-3.034-1.486
					c-0.823-0.883-1.483-2.007-1.981-3.372c-0.498-1.363-0.93-2.898-1.294-4.605c-0.365-1.705-0.728-3.512-1.09-5.418
					c-3.335-16.48-6.641-32.765-9.924-48.773c-0.169-0.876-0.343-1.734-0.521-2.576c-0.179-0.841-0.327-1.748-0.445-2.721
					c-0.118-0.972-0.174-1.792-0.167-2.461c0.018-1.706,0.439-3.256,1.263-4.661c0.823-1.405,1.846-2.112,3.07-2.112
					c1.499,0,2.551,0.784,3.158,2.361C384.755,105.554,385.368,108.075,385.988,111.548z"/>
				<path d="M421.542,171.792c0.047-20.238,0.094-40.476,0.14-60.713c0.007-3.154,0.417-5.519,1.23-7.096
					c0.812-1.577,1.859-2.366,3.142-2.366c1.321,0,2.391,0.781,3.209,2.343c0.817,1.562,1.226,3.941,1.225,7.135
					c-0.01,20.273-0.02,40.547-0.029,60.821c-0.001,3.195-0.418,5.58-1.251,7.153s-1.922,2.351-3.265,2.33
					c-1.284-0.021-2.34-0.842-3.168-2.455C421.945,177.331,421.535,174.946,421.542,171.792z"/>
				<path d="M468.994,114.729c-6.614,0.096-13.229,0.166-19.845,0.209c0.021,6.294,0.042,12.589,0.064,18.883
					c6.115-0.097,12.229-0.247,18.339-0.451c1.348-0.045,2.358,0.445,3.032,1.467c0.673,1.023,1.016,2.39,1.029,4.105
					c0.013,1.717-0.303,3.13-0.951,4.245c-0.647,1.113-1.658,1.705-3.028,1.768c-6.123,0.279-12.25,0.484-18.38,0.616
					c0.024,7.291,0.049,14.582,0.074,21.873c6.916-0.222,13.828-0.582,20.73-1.082c1.396-0.101,2.454,0.376,3.17,1.432
					c0.717,1.057,1.083,2.505,1.099,4.354c0.014,1.78-0.329,3.258-1.029,4.436c-0.7,1.178-1.75,1.833-3.15,1.954
					c-8.067,0.692-16.149,1.16-24.236,1.403c-1.944,0.059-3.344-0.665-4.198-2.156c-0.855-1.491-1.284-3.923-1.29-7.291
					c-0.03-19.329-0.061-38.657-0.091-57.985c-0.004-2.245,0.182-4.079,0.554-5.5c0.373-1.42,0.958-2.455,1.756-3.105
					c0.798-0.648,1.819-0.973,3.061-0.974c7.735-0.004,15.47-0.012,23.204-0.022c1.401-0.002,2.445,0.537,3.135,1.615
					c0.689,1.078,1.041,2.488,1.055,4.235c0.014,1.782-0.314,3.215-0.988,4.305C471.436,114.152,470.398,114.709,468.994,114.729z"
					/>
				<path fill="#888081" d="M488.159,109.956c0.071,6.782,0.143,13.565,0.214,20.348c1.008-2.062,1.996-3.692,2.962-4.902
					c0.966-1.209,2.04-2.125,3.22-2.754c1.18-0.627,2.451-0.967,3.815-1.024c2.055-0.086,3.886,0.555,5.496,1.902
					c1.607,1.349,2.884,3.343,3.828,5.983c0.594,1.538,1.002,3.266,1.225,5.189c0.223,1.926,0.351,4.152,0.384,6.684
					c0.109,8.383,0.219,16.766,0.328,25.149c0.034,2.628-0.312,4.678-1.037,6.158c-0.726,1.479-1.703,2.333-2.933,2.545
					c-2.678,0.464-4.052-2.036-4.118-7.463c-0.092-7.53-0.184-15.061-0.276-22.591c-0.052-4.279-0.479-7.536-1.278-9.79
					c-0.8-2.252-2.278-3.317-4.435-3.187c-1.445,0.087-2.739,0.851-3.881,2.303c-1.144,1.453-1.991,3.402-2.54,5.85
					c-0.415,2.071-0.595,5.722-0.54,10.947c0.063,6.045,0.127,12.091,0.19,18.137c0.028,2.712-0.313,4.826-1.025,6.343
					c-0.713,1.517-1.718,2.362-3.013,2.52c-2.693,0.33-4.067-2.341-4.119-7.976c-0.185-20.087-0.37-40.175-0.555-60.262
					c-0.026-2.816,0.305-4.932,0.992-6.34c0.688-1.407,1.662-2.108,2.925-2.108c1.281,0,2.29,0.708,3.025,2.114
					C487.748,105.137,488.13,107.21,488.159,109.956z"/>
				<path fill="#888081" d="M538.574,161.449c-0.007-0.513-0.014-1.025-0.021-1.538c-0.936,2.03-1.923,3.794-2.966,5.285
					c-1.042,1.49-2.188,2.696-3.435,3.604c-1.249,0.909-2.68,1.555-4.293,1.92c-1.947,0.441-3.705,0.198-5.271-0.749
					s-2.789-2.474-3.668-4.57c-1.044-2.534-1.601-6.381-1.671-11.5c-0.116-8.494-0.231-16.989-0.347-25.483
					c-0.036-2.575,0.303-4.524,1.016-5.835c0.713-1.313,1.671-1.995,2.874-2.063c1.223-0.069,2.218,0.509,2.985,1.721
					c0.766,1.214,1.167,3.055,1.202,5.537c0.094,6.698,0.187,13.396,0.28,20.093c0.041,2.913,0.233,5.333,0.576,7.253
					c0.342,1.92,0.931,3.362,1.763,4.319c0.833,0.957,1.947,1.291,3.343,1.008c1.357-0.273,2.625-1.153,3.806-2.615
					c1.181-1.461,2.032-3.215,2.554-5.261c0.428-1.793,0.603-5.559,0.523-11.308c-0.067-4.87-0.134-9.74-0.202-14.61
					c-0.033-2.377,0.317-4.199,1.049-5.453c0.731-1.253,1.697-1.915,2.898-1.999c1.2-0.083,2.172,0.431,2.915,1.529
					c0.744,1.099,1.13,2.805,1.161,5.135c0.147,11.238,0.295,22.477,0.442,33.715c0.029,2.216-0.296,3.966-0.975,5.263
					c-0.678,1.295-1.564,2.097-2.659,2.386c-1.096,0.289-2.008-0.063-2.739-1.065C538.984,165.166,538.603,163.587,538.574,161.449z
					"/>
				<path fill="#888081" d="M560.895,107.804c0.057,5.514,0.113,11.028,0.17,16.542c1.487-2.292,3.009-4.045,4.567-5.292
					c1.558-1.247,3.497-1.951,5.809-2.159c2.663-0.24,5.002,0.344,7.014,1.664c2.009,1.323,3.563,3.316,4.664,5.978
					c1.103,2.665,1.648,5.87,1.648,9.716c0,2.839-0.304,5.517-0.908,8.079c-0.604,2.561-1.479,4.916-2.626,7.078
					c-1.146,2.162-2.536,4.04-4.171,5.609c-1.637,1.57-3.443,2.721-5.424,3.397c-1.212,0.414-2.354,0.609-3.428,0.579
					c-1.073-0.031-1.989-0.246-2.749-0.645c-0.76-0.398-1.41-0.86-1.948-1.383c-0.54-0.522-1.251-1.339-2.139-2.474
					c0.003,0.357,0.007,0.714,0.011,1.071c0.021,2.036-0.322,3.68-1.027,4.948c-0.706,1.266-1.61,2.079-2.716,2.415
					c-1.125,0.342-2.028,0.075-2.711-0.811c-0.683-0.885-1.039-2.393-1.064-4.507c-0.196-16.358-0.392-32.717-0.587-49.075
					c-0.027-2.278,0.281-4.009,0.929-5.175c0.647-1.167,1.563-1.742,2.746-1.742c1.243,0,2.206,0.544,2.887,1.614
					C560.523,104.302,560.874,105.821,560.895,107.804z M561.606,139.898c0.043,4.305,0.804,7.456,2.271,9.366
					c1.467,1.915,3.37,2.502,5.708,1.827c1.989-0.574,3.692-2.207,5.119-4.8c1.425-2.597,2.13-5.872,2.112-9.906
					c-0.011-2.61-0.321-4.793-0.934-6.582c-0.611-1.789-1.479-3.125-2.595-4.013c-1.119-0.886-2.423-1.246-3.906-1.048
					c-1.524,0.203-2.88,0.92-4.062,2.184s-2.104,3.004-2.767,5.228C561.892,134.376,561.576,136.968,561.606,139.898z"/>
			</g>
		</g>
		<g opacity="0.6">
			<g>
				<g>
					<g>
						<g>
							<path fill="#8F4F9C" d="M665.966,102.324c0.611-0.479,0.116-0.604,0.152-0.735
								C665.208,102.496,666.063,102.384,665.966,102.324z"/>
							<polygon fill="#8F4F9C" points="656.36,111.386 656.432,111.098 655.193,112.721 							"/>
							<path fill="#8F4F9C" d="M646.679,119.013c1.361-0.148,3.484-2.831,5.388-3.976l0.388-0.094l0.436-1.06
								C650.822,115.59,648.296,118.019,646.679,119.013z"/>
							<path fill="#8F4F9C" d="M640.504,121.784c0.492-0.021-1.001,1.039,1.286-0.844c-0.136,0.067-0.181,0.079-0.263,0.114
								C641.315,121.214,641.02,121.431,640.504,121.784z"/>
							<path fill="#8F4F9C" d="M641.527,121.053C642.55,120.248,640.707,121.379,641.527,121.053L641.527,121.053z"/>
							<path fill="#8F4F9C" d="M636.781,124.733l1.233-1.212c-0.386,0.08-1.637,0.951-1.251,0.52
								C635.429,125.188,635.816,125.106,636.781,124.733z"/>
							<path fill="#8F4F9C" d="M635.779,126.114l0.654-0.61C636.268,125.54,636.064,125.66,635.779,126.114z"/>
							<path fill="#8F4F9C" d="M637.821,124.211l-1.388,1.293c0.269-0.054,0.427,0.117,0.65-0.576
								C637.085,125.189,637.265,124.805,637.821,124.211z"/>
							<path fill="#8F4F9C" d="M638.745,123.668c0.867-0.444,1.929-1.101,0.688,0.115
								C642.021,121.764,641.328,121.649,638.745,123.668z"/>
							<path fill="#8F4F9C" d="M646.625,119.986l1.149-0.621l0.737-0.871C648.143,118.928,646.426,119.857,646.625,119.986z"/>
							<path fill="#8F4F9C" d="M627.933,130.694c-0.001,0.185,0.706,0.003,0.924,0.089l0.938-0.861
								C629.2,130.207,628.133,130.829,627.933,130.694z"/>
							<path fill="#8F4F9C" d="M628.856,130.783l-1.406,1.29C628.858,131.136,629.041,130.859,628.856,130.783z"/>
							<polygon fill="#8F4F9C" points="636.001,126.935 638.188,124.65 635.521,127.296 							"/>
							<polygon fill="#8F4F9C" points="621.986,134.783 622.668,133.884 621.399,135.408 							"/>
							<path fill="#8F4F9C" d="M618.083,137.556c0.499-0.678-1.183,0.183-0.582-0.424c-1.061,0.746-1.854,1.555-2.569,2.283
								C615.755,138.735,616.722,138.15,618.083,137.556z"/>
							<path fill="#8F4F9C" d="M613.702,140.598c0.407-0.346,0.801-0.749,1.229-1.183
								C614.495,139.777,614.082,140.158,613.702,140.598z"/>
							<path fill="#8F4F9C" d="M624.756,133.845c-0.173,0.007-0.541-0.03-1.471,0.49l0.854-0.071
								C624.327,134.136,624.539,133.992,624.756,133.845z"/>
							<path fill="#8F4F9C" d="M624.168,134.26l-0.029,0.003c-0.671,0.45-1.137,0.762-1.336,0.895
								C622.975,135.045,623.387,134.775,624.168,134.26z"/>
							<path fill="#8F4F9C" d="M624.911,133.74c-0.058,0.039-0.1,0.067-0.155,0.105C624.839,133.839,624.882,133.826,624.911,133.74
								z"/>
							<path fill="#8F4F9C" d="M631.765,129.563c-0.751,0.863-2.502,2.412-0.458,1.402
								C631.781,130.254,630.622,130.847,631.765,129.563z"/>
							<path fill="#8F4F9C" d="M625.977,133.652l1.711-1.065c-0.097-0.07-0.49,0.002-0.104-0.409L625.977,133.652z"/>
							<polygon fill="#8F4F9C" points="625.243,134.325 625.977,133.652 625.342,134.047 							"/>
							<path fill="#8F4F9C" d="M616.81,139.07c-0.626,0.625-1.415,1.153-2.3,1.759c1.012-0.552,2.035-1.159,2.983-1.771
								C617.553,138.859,617.836,138.391,616.81,139.07z"/>
							<path fill="#8F4F9C" d="M620.424,136.792c-0.046,0.041-0.104,0.092-0.146,0.13
								C620.396,136.884,620.481,136.84,620.424,136.792z"/>
							<path fill="#8F4F9C" d="M605.604,146.492c0.063-0.007,0.122-0.014,0.187-0.021c-0.002-0.028-0.007-0.053-0.005-0.083
								L605.604,146.492z"/>
							<path fill="#8F4F9C" d="M617.699,139.019c0.773-0.396,1.148-0.766,1.477-1.161c-0.502,0.412-1.068,0.797-1.683,1.2
								C617.467,139.147,617.478,139.187,617.699,139.019z"/>
							<path fill="#8F4F9C" d="M611.339,142.36c0.426-0.168,0.895-0.381,1.383-0.612C612.279,141.872,611.412,142.18,611.339,142.36
								z"/>
							<path fill="#8F4F9C" d="M619.973,136.989c0.032-0.03,0.062-0.057,0.096-0.089
								C619.784,136.985,619.838,137.002,619.973,136.989z"/>
							<path fill="#8F4F9C" d="M619.973,136.989c-0.331,0.304-0.561,0.591-0.797,0.869c0.414-0.328,0.79-0.643,1.103-0.936
								C620.173,136.958,620.06,136.98,619.973,136.989z"/>
							<path fill="#8F4F9C" d="M604.27,150.475c-0.07-0.419,1.7-1.896,3.618-2.542c1.495-1.272-0.266-1.691-2.097-1.462
								c0.039,0.178,0.123,0.313-1.464,1.528c0.709-0.17,4.058-1.822,2.803-0.66c-2.162,1.522-1.933,0.985-3.142,1.46
								c1.193-0.135-2.518,2.331-1.655,2.663l1.864-1.405C604.293,150.132,603.662,150.716,604.27,150.475z"/>
							<path fill="#8F4F9C" d="M609.021,144.505l0.66-0.484c-0.819,0.446-1.464,0.673-2.658,1.075
								c-1.057,0.869-1.228,1.129-1.237,1.292c0,0,0.88-0.486,1.733-1.017c0.853-0.534,1.705-1.067,1.705-1.067L609.021,144.505z"/>
							<path fill="#8F4F9C" d="M612.764,142.031c-0.303,0.708-1.856,1.928-0.594,1.669c2.004-1.328,1.221-1.216,2.325-2.15
								c-3.198,2.189,0.804-0.804-1.68,0.507c0.6-0.474,1.161-0.863,1.694-1.228c-0.614,0.333-1.214,0.643-1.788,0.919
								c0.035-0.01,0.06-0.017,0.089-0.025l0.015-0.011v0.008c0.17-0.045,0.233-0.047,0.059,0.028
								c-0.008,0.012-0.046,0.039-0.063,0.051c0.01,0.065-0.021,0.147-0.06,0.231c-0.989,0.533-0.208,0.001,0.06-0.231
								c-0.001-0.024,0.014-0.058,0.004-0.079l-0.015,0.003l-3.129,2.299C610.403,143.627,611.26,143.06,612.764,142.031z"/>
							<path fill="#8F4F9C" d="M630.143,132.913c-0.121,0.038-0.135,0.01-0.16-0.011
								C629.806,133.088,629.748,133.172,630.143,132.913z"/>
							<path fill="#8F4F9C" d="M628.675,133.612c0.198-0.21,0.293-0.485,1.075-0.973c0.731-0.348,0.116,0.171,0.232,0.263
								c0.391-0.409,1.418-1.356-0.134-0.538l-0.192,0.205c-1.375,0.771-3.337,1.475-3.146,1.27
								C627.108,133.896,627.598,133.894,628.675,133.612z"/>
							<path fill="#8F4F9C" d="M620.733,138.082c0,0-0.636,0.504-1.272,1.009c-0.648,0.486-1.297,0.972-1.297,0.972
								s0.397-0.146,0.796-0.292c0.4-0.142,0.792-0.299,0.792-0.299l-0.193-0.139C621.123,138.357,620.642,138.355,620.733,138.082z
								"/>
							<polygon fill="#8F4F9C" points="605.176,146.497 605.306,145.891 604.04,147.39 							"/>
							<polygon fill="#8F4F9C" points="601.604,148.682 601.535,148.263 600.707,149.032 							"/>
							<path fill="#8F4F9C" d="M372.089,184.932l-0.962-0.038C371.579,184.93,371.872,184.938,372.089,184.932z"/>
							<path fill="#8F4F9C" d="M378.924,186.02l0.197-0.168C378.788,185.911,378.646,185.97,378.924,186.02z"/>
							<path fill="#8F4F9C" d="M505.889,183.837c-1.42-0.16-3.02-0.499-2.791-0.083l0.48,0.366
								C504.519,183.9,505.254,183.838,505.889,183.837z"/>
							<path fill="#8F4F9C" d="M435.517,189.793c0.13,0.048,0.266,0.098,0.4,0.148c0.344-0.135,0.667-0.263,0.958-0.377
								C436.465,189.633,436.002,189.711,435.517,189.793z"/>
							<path fill="#8F4F9C" d="M434.442,191.543l-1.82-0.396C433.029,191.271,433.615,191.401,434.442,191.543z"/>
							<path fill="#8F4F9C" d="M334.782,179.104l-1.172,0.244C335.326,179.646,334.609,179.294,334.782,179.104z"/>
							<path fill="#8F4F9C" d="M563.456,168.083c-1.16,0.303-2.047,0.626-2.829,0.905
								C562.045,168.687,563.242,168.56,563.456,168.083z"/>
							<path fill="#8F4F9C" d="M375.485,180.806c-0.588-0.013-0.847,0.036-0.845,0.134
								C375.244,180.959,375.591,180.93,375.485,180.806z"/>
							<path fill="#8F4F9C" d="M557.412,170.173c0.211-0.032,0.412-0.082,0.625-0.122c0.788-0.367,1.586-0.723,2.59-1.063
								C559.567,169.18,558.396,169.49,557.412,170.173z"/>
							<path fill="#8F4F9C" d="M199.586,165.366c-0.1-0.015-0.218-0.018-0.309-0.037
								C199.25,165.389,199.387,165.386,199.586,165.366z"/>
							<path fill="#8F4F9C" d="M159.575,166.041c0.383-0.103,1.016-0.227,1.612-0.35
								C160.891,165.718,160.403,165.817,159.575,166.041z"/>
							<path fill="#8F4F9C" d="M586.84,156.764C587.606,156.317,586.941,156.655,586.84,156.764L586.84,156.764z"/>
							<path fill="#8F4F9C" d="M591.453,156.222c-0.144,0.133-0.24,0.256-0.212,0.354
								C591.256,156.45,591.333,156.333,591.453,156.222z"/>
							<path fill="#8F4F9C" d="M550.005,175.775c-0.024,0.009-0.045,0.016-0.073,0.025
								C550.209,175.789,550.161,175.79,550.005,175.775z"/>
							<path fill="#8F4F9C" d="M588.106,156.304c-0.318,0.111-0.677,0.254-1.059,0.425
								C587.225,156.672,587.548,156.545,588.106,156.304z"/>
							<path fill="#8F4F9C" d="M587.852,156.208c0.277-0.131,0.495-0.234,0.702-0.332
								C588.618,155.76,588.51,155.767,587.852,156.208z"/>
							<path fill="#8F4F9C" d="M585.764,157.372c0.443-0.247,0.869-0.454,1.284-0.643c-0.167,0.057-0.242,0.07-0.208,0.035
								C586.613,156.892,586.294,157.072,585.764,157.372z"/>
							<path fill="#8F4F9C" d="M272.397,167.69c-0.057-0.021-0.122-0.043-0.185-0.066
								C271.295,167.697,271.692,167.711,272.397,167.69z"/>
							<path fill="#8F4F9C" d="M483.314,191.051c0.041-0.011,0.064-0.017,0.101-0.027c-0.042-0.002-0.096-0.005-0.134-0.007
								L483.314,191.051z"/>
							<path fill="#8F4F9C" d="M480.11,191.565c1.337-0.621,2.121-0.601,3.17-0.548l-1.161-1.184L480.11,191.565z"/>
							<path fill="#8F4F9C" d="M355.724,182.378l2.163,0.764c-2.795,0.175-4.705-0.375-2.704,0.522
								c0.537-1.274,8.692,1.311,9.224,0.02l1.424,0.524c-0.419-0.083-0.5-0.015-0.914-0.097c2.756,1.113,2.28-0.612,5.938,0.158
								c1.269,0.305,2.136,0.641,1.234,0.662l2.917,0.119c0.83,0.157,0.589,0.358-0.236,0.202l4.39,0.563l-0.039,0.035
								c0.656-0.119,2.12-0.236,2.831-0.272c1.083,0.357-0.579,0.06-0.319,0.27l2.47,0.032c0.937,0.494-1.121,0.535-2.788,0.238
								c2.069,1.669,2.058-0.026,6.838,1.449l-2.317-0.152c1.367,0.988,3.203,0.937,5.735,1.77
								c-0.585-0.333-5.034-1.903-2.349-1.881c0.729,0.202,1.703,0.383,3.162,0.305c-0.051,0.48,1.354,0.551,3.097,0.759
								l-0.201,0.618c1.904,0.076,1.8-0.286,2.944-0.432c2.091,0.316,2.467,0.861,2.912,1.335c3.354,0.508-2.229-1.07,1.768-0.708
								c2.766,0.596,4.768,0.536,8.159,0.501c1.939,0.424-0.383,0.354,0.302,0.609l1.79-0.326c0.425,0.057,0.271,0.198,0.194,0.27
								c1.484-0.046,0.184-0.62,2.501-0.561c0.683-0.649,4.644,1.43,7.568,0.875c0.689,0.241-0.371,0.362-0.175,0.627
								c3.96-0.194,3.396-0.144,6.661-0.625l2.718,0.594c-1.987-0.617,0.622-0.992,2.895-1.353c-0.702-0.254-1.3-0.499-1.703-0.622
								c0,0,0.9-0.02,1.802-0.078c0.901-0.05,1.801-0.1,1.801-0.1c0.428,0.123,0.058,0.328-0.543,0.571
								c0.247-0.047,0.48-0.092,0.665-0.127c1.273,0.288,0.593,0.63-0.345,0.95c-0.43-0.15-0.859-0.3-1.277-0.446
								c-0.907,0.358-1.762,0.742-1.596,1.123c0.237-0.055,0.692-0.102,1.189-0.118c-0.238,0.096-0.392,0.184-0.287,0.252
								c0.119,0.072,0.502-0.054,1.1-0.193l0.787,0.745l0.212-0.275l4.707,0.635c3.407-0.566,6.364-1.65,11.703-1.858
								c-1.326,0.517-0.286,0.854-0.358,1.475c-1.461-0.676-4.156,0.221-6.939,0.049c1.45,0.089,1.126,0.38,0.755,0.478l4.971-0.527
								c-0.115,0.493,1.053,0.423,2.35,0.59c-0.981-0.983,3.692-0.736,5.703-1.082c0.131,0.334-0.347,0.687-2.81,0.652
								c2.729,0.703,3.489-1.242,6.162-0.652c-0.6,0.02-0.925-0.026-1.158,0.149c1.395-0.325,4.828-0.153,4.032,0.155l-0.6,0.018
								c0.998,0.005,2.257,0.015,3.59-0.042c1.333-0.086,2.743-0.199,4.043-0.335c2.603-0.273,4.771-0.643,5.039-1.085
								c0.047,0.107-0.455,1.054-0.686,1.24c0,0,1.727-0.819,3.454-1.638c0.857-0.409,1.715-0.818,2.358-1.125
								c0.638-0.33,1.064-0.55,1.064-0.55c-0.565,0.78,1.981,2.306-1.285,3.003c0.958,0.06,2.14,0.021,4.114-0.43
								c-0.657-0.037-1.702-0.886-0.828-1.043c2.491,0.561,1.715,0.26,4.77,0.642c-0.984-0.056-0.026-1.307,1.5-1.427
								c-0.22,0.195,0.25,1.111-0.296,1.287l3.674-1.51c-0.923,0.299-0.056,0.964,0.837,1.191c-0.212-0.099,0.615-0.146,1.612-0.276
								c0.997-0.131,2.171-0.275,2.668-0.407l-1.64-0.017c4.301-0.476,3.995-2.201,8.217-2.778
								c-0.472,0.306-1.039,1.603,1.141,1.417c0.446-0.363,1.428-1.196,2.738-2.099c1.302-0.952,2.933-1.953,4.728-2.541
								l0.769,0.181l2.748-0.936c-1.57,1.186-6.176,4.021-8.802,5.208c1.643,0,0.512,0.311,2.89-0.184
								c0.897,0.134-1.214,0.722-1.914,0.881l5.591-0.922c-0.376-0.611,4.108-1.516,3.778-2.021l-5.877,1.895
								c-0.363-0.611,3.108-2.572,7.028-3.241c1.052,0.061-0.487,1.319-0.36,1.522c0.464-0.318,3.624-1.182,4.006-1.161
								c0,0-0.391,0.192-0.782,0.385c-0.389,0.2-0.787,0.367-0.787,0.367c2.229-0.27,3.319-1.755,6.065-1.785
								c0.904-0.186,2.893,0.156,2.948-0.269c-1.661-0.368-2.528-2.596-1.713-3.398c0.315-0.045,4.846-0.437,5.946-0.41
								c0.803,0.065,0.362,0.578-0.113,1.089c-0.472,0.519-0.997,0.972-0.297,1.069c0.008-0.177,0.745-0.652,1.059-0.824
								c0.968-0.137-0.226,0.666,1.763-0.039c0.142-0.758,4.105-1.215,0.786-0.848c1.907-0.796,2.128-0.515,4.427-1.26
								c-0.864-0.192,1.61-2.07,3.499-2.86c-0.062,0.197,0.454,0.285,0.695,0.301c3.958-1.391,6.181-1.879,9.862-3.228
								c0.398,0.03,2.249-0.439,1.6,0.113c0.49-0.299,0.888-0.702,1.991-1.201c2.378-0.372-2.451,1.144-0.544,1.101
								c-0.005-0.428,2.683-1.736,4.172-2.639c-0.728-0.363-3.698,1.466-5.211,2.342c-0.303-0.751,2.117-2.77,5.708-4.715
								c2.893-1.459,1.509-0.049,1.978-0.38c2.83-1.125,3.878-1.954,4.785-2.769c0.919-0.79,1.74-1.468,4.139-2.29
								c2.036-0.387,0.548,0.923,1.116,1.08c-2.295,1.336-3.803,1.459-5.404,2.258l2.093-0.729
								c-0.687,0.518-2.206,1.444-3.158,1.675c0.879-0.101,3.196-1.236,5.873-2.498c1.339-0.629,2.763-1.298,4.119-1.936
								c1.371-0.608,2.672-1.186,3.754-1.666c0.655-0.559,1.84-1.41,1.138-1.277l-1.276,0.775c-1.402,0.265,2.187-1.862,0.437-1.147
								c1.614-1.219,3.347-2.699,5.929-3.814l0.761,0.286c-0.141-0.128-1.79,0.551-2.394,1.09c0.895-0.792,4.191-1.319,4.925-2.63
								l-1.938,0.564c1.631-1.18,3.395-3.059,5.63-4.143c-1.275,0.053-0.457,0.352-2.325,0.638c0.876-0.008-0.49,0.793-1.755,1.54
								c-1.277,0.722-2.478,1.346-1.169,1.174c-1.99,0.14-2.922,1.181-5.329,1.684c0.159,0.144,0.918-0.056-0.956,0.842
								c-0.055,0.097-0.214,0.268-0.316,0.374c-0.06,0.024-0.08,0.032-0.131,0.053c0.04-0.012,0.071-0.021,0.111-0.033
								c-0.064,0.069-0.068,0.079,0.042-0.013c0.477-0.157,0.88-0.254,1.076-0.231c-0.688,0.899-3.609,2.46-4.485,3.207
								c-1.142,0.482,0.354-0.442-0.343-0.324l-1.341,1.051c-0.354-0.328-3.282,0.759-0.788-0.74l-2.359,1.119
								c-1.494,0.443-3.436,1.271-4.528,2.009c-1.147,0.447-2.59,1.805-1.771,1.019c0,0-0.224,0.127-0.558,0.318
								c-0.332,0.198-0.784,0.439-1.243,0.666c-0.913,0.464-1.826,0.929-1.826,0.929l-0.08-0.088
								c-1.869,0.765-3.707,1.75-5.653,2.679c-0.973,0.464-1.972,0.914-3.012,1.314c-1.049,0.376-2.158,0.652-3.311,0.867
								c-1.234,0.575-2.506,1.19-4.685,1.856l-0.547-0.213c-0.795,0.365-2.056,0.726-3.187,1.075
								c-1.126,0.365-2.164,0.597-2.452,0.916c-2.123-0.451-8.125,2.319-11.124,2.991l0.025,0.517
								c-2.053,0.494-3.976,1.132-6.468,1.978l0.266,0.395c-2.112,0.907-5.704,1.197-9.218,1.873
								c0.203-0.216,1.102-0.351,1.754-0.377c-2.205-0.072-4.371,0.552-6.493,1.202c-1.06,0.325-2.108,0.657-3.138,0.91
								c-0.515,0.125-1.024,0.237-1.529,0.306c-0.509,0.051-1.012,0.073-1.507,0.054c-0.93,0.305-1.632,0.354-2.321,0.344
								c0.089-0.014,0.167-0.034,0.233-0.059c-0.098,0.013-0.244,0.033-0.394,0.054c-0.435-0.013-0.883-0.036-1.365-0.036
								c0.417,0.047,0.814,0.078,1.154,0.069c-0.736,0.121-1.846,0.344-2.927,0.621l-0.538-0.406
								c-0.088,0.018-0.159,0.033-0.251,0.052c-1.101-0.014-0.833,0.356-0.206,0.628c-0.542,0.162-1.035,0.332-1.412,0.506
								c-0.981-0.643-2.848,0.705-4.151,0.042c-0.694,0.478-5.516,0.875-6.018,1.782c-0.049-0.106-0.381-0.125,0.216-0.193
								c-1.246,0.031-2.487,0.062-3.572,0.415l-0.581-0.555l-2.622,1.098c-1.67-0.195-2.366-0.39-0.778-0.986
								c-3.875,0.999-3.169,0.473-6.472,1.397l0.138-0.405c-1.195,0.086-3.082,0.729-3.823,0.445
								c-1.362-0.321-4.669-0.049-8.519-0.058c-3.846,0.053-8.22,0.123-11.662-0.162c1.334,1.177-3.196-0.545-3.473,0.343
								c-0.398-0.281-1.354-0.45-0.239-0.674c-3.514,0.202-5.256-0.465-7.7,0.172c-0.392-0.293,0.764-0.374,0.412-0.552
								c-0.283,0.048-1.122,0.195-1.48,0.016c-0.351-0.178,0.521-0.21,1.079-0.309c-3.577-0.097-3.976,0.737-4.272,1.523
								c-1.804-0.457-2.712-0.418-4.055,0.022c-0.62-0.301-1.659-0.641,0.574-0.592c-1.254-0.118-7.63-0.87-7.804-0.241
								c-0.381-0.188-1.75-0.153-2.084-0.118c-2.808-0.277-3.051-0.356-5.816-0.531l0.756,0.169
								c-1.157,0.669-2.313-0.012-4.545-0.134l0.071-0.072c-5.041-1.084-2.23,0.036-7.19-1.12l0.221,0.505
								c-0.586,0.997-4.386-1.104-7.342-1.071l1.019,0.399c-1.637,0.151-4.277-1.917-5.85-2.264c-0.336-0.137,0.566-0.067,1.06-0.07
								c-4.091-1.166-0.621,0.551-3.75,0.275c-0.528-0.414,0.853-0.754-1.23-1.1c-1.002-0.405-6.219,0.27-8.977-0.814
								c0.59,0.351,1.177,0.701-0.295,0.683c-2.228-0.231-5.83-1.855-7.949-1.368c-0.27-0.115-0.366-0.199-0.367-0.265
								c-1.721-0.057-5.543-0.512-6.632-0.237c-1.292-1.895-10.627-0.93-10.337-2.444l-5.202-0.803l0.162-0.131
								c-3.299-0.663-4.534-0.507-5.762-0.348c-0.749-0.235-0.165-0.279-0.088-0.347c-4.793-1.145-5.285-1.161-9.479-1.12
								l-0.337-0.562c-1.151,0.092-6.872-1.99-11.729-2.24c0.056-0.047,0.171-0.125,0.561-0.128
								c-5.445-0.363-12.593-3.543-14.854-2.099l-3.611-0.14c4.554,0.887-0.809,0.661,1.024,1.265
								c-1.815-0.19-4.563-1.299-2.337-1.028l0.332,0.146c0.964-0.794-5.633-1.263-5.41-1.869
								c-9.026-1.375-17.758-3.211-26.255-4.338l0.884,0.855l-2.954-0.435c-0.758-0.256-0.972-0.709,1.137-0.396
								c-1.058-0.572-3.593-0.088-3.67,0.059c-4.109-0.785,1.722-0.655,0.453-0.823l-1.734-0.15l0.379,0.131
								c-1.436,0.131-1.597,0.431-4.136,0.094c-1.593-0.336-0.775-0.546-1.406-0.649c0.009-0.049-0.201-0.106-0.971-0.13
								l-3.743-0.442l1.439,0.727c-1.69,0.115-3.518-0.387-1.857,0.439c-2.428-1.322-13.95-1.63-15.488-2.034
								c-2.364,0.278-4.664,0.131-7.515-0.092c0.704,0.163,1.091,0.837-1.361,0.608c0.966-1.308-4.481-0.748-6.443-1.785
								c0.881,0.353-0.875,0.327-2.503,0.34c-1.629,0.021-3.132,0.137-1.743,0.598c-2.056-0.13-0.115-0.502-1.673-0.834
								c-2.458,0.248-5.156,0.086-8.006-0.004c-2.849-0.07-5.851-0.208-8.883-0.037c-0.088,0.18,0.935,0.4-0.355,0.725l-3.237-0.724
								c-1.196,0.145-1.052,1.067-3.271,0.564c0.317,0.133,0.79,0.333-0.009,0.428c-5.954-0.072-12.008,0.604-18.045,1.456
								c-3.029,0.348-6.038,0.881-9.066,1.25c-1.511,0.203-3.036,0.315-4.547,0.503c-1.513,0.181-3.03,0.324-4.556,0.417
								c1.676,0.019,0.608,0.263-0.617,0.516c0.814-0.077,0.067,0.43,0.271,0.632c0,0-1.273,0.081-2.547,0.162
								c-1.28,0.06-2.543,0.217-2.543,0.218c-0.751,0.859-5.271,1.306-5.634,2.043l1.529-0.483c-1.885,1.218,3.278,0.922,3.183,1.93
								c2.106-1.439,6.325-0.082,9.875-2.018c0.873,0.028-0.657,0.443-0.168,0.574c0.887-0.571,2.023-0.954,4.226-1.081
								l-0.228,0.138c3.033-0.522,5.219-0.785,7.501-1.016c2.289-0.188,4.685-0.268,8.125-0.546l-0.559-0.411
								c1.483-0.109,1.808-0.002,2.511,0.041c1.623-0.906-4.149,0.436-2.689-0.525c0.517,0.182,1.425,0.197,2.52,0.133
								c1.099-0.029,2.385-0.126,3.652-0.22c2.534-0.187,4.991-0.352,5.689,0.141c2.281-0.117-0.705-0.518,1.578-0.625l0.623,0.266
								l0.555-0.409c1.502-0.01,2.276,0.324,2.343,0.572c-0.364-0.012-1.027,0.12-1.415,0.161c1.954,0.257,5.458-0.391,6.13-0.297
								l-2.198-0.082c1.552-0.165,3.197-0.221,4.882-0.257c1.685-0.035,3.41-0.07,5.128-0.106c3.437-0.058,6.849-0.015,9.873-0.303
								l-0.454-0.229c4.623-0.323,3.686,0.36,8.753,0.337l-0.186,0.046c1.022-0.18,2.382-0.264,3.766-0.14
								c-1.29,0.184,2.376,0.654,0.686,0.841c5.017-0.141,2.487-0.199,5.843-0.827l0.736,0.416c1.149-0.271,1.255-0.43,3.791-0.32
								c-2.096,0.147,1.568,0.695-0.784,0.925c5.223,1.243,7.937-0.185,10.25,1.264c2.529-0.775-4.522-1.033-3.142-1.104
								c-1.111-0.442,2.079-0.579,3.731-0.297c1.691,0.201,2.746,1.583,6.99,2.022c-0.422-0.054-0.459,0.019-0.879-0.034
								c1.558,0.446,3.15,0.015,5.048,0.667c1.165-0.487,2.523,0.334,2.934-0.414l-3.916-0.279c2.228,0.07,4.42-0.653,7.997,0.291
								c-0.304,0.121-1.411,0.186-2.168,0.203c1.032,0.373,2.064,0.118,3.135,0.502c-0.416,0.736-4.747-0.458-7.185-0.118
								c1.099,0.467,4.539-0.041,3.246,0.67c1.843-0.869,4.153,0.688,7.13,0.24l-0.253,0.445c0.464-0.014,1.435-0.111,2.269,0.013
								l-1.596,0.408c2.394-0.223,4.407,1.076,6.668,1.115c-4.655-0.662-0.963-0.718-2.884-1.347
								c5.836,0.213,3.128,1.695,9.583,2.433c-0.878-0.077-3.222-0.772-1.829-0.791c1.209,0.277,2.795,0.716,3.508,1.076
								c4.269,0.565-0.579-0.584,1.277-0.59c1.36,0.797,2.125,0.093,4.021,0.201l-0.063,0.479c4.799,1.078,1.445-0.788,5.75,0.291
								l-1.952,0.358l2.302,0.202l-0.558,0.465c2.54,0.004,3.294,0.231,5.692,0.784c-0.508-0.431,0.461-0.81,2.609-0.461
								c1.416,0.53-0.896,0.313,2.157,0.761c-0.737,0.181-1.552,0.427-2.801-0.235c-0.162,0.132-0.728,0.184-0.893,0.313
								c1.521,0.592,3.946,0.745,5.048,0.927c-0.421-0.09-0.923-0.201-1.171-0.313l4.521,0.088c0.664,0.299,0.088,0.346-0.481,0.394
								c0.901,0.101,1.557-0.009,2.877,0.177c-0.407,0.328-0.394,0.741-2.283,0.601l4.273,0.297
								c0.251,0.217,2.076,0.834,1.505,0.883c2.288,0.628,5.842,0.241,8.878,1.08c0.173-0.047,0.508-0.063,1.174-0.003
								c2.886,0.594,5.377,1.513,8.911,1.581l1.833,1.032c2.723,0.31-2.493-1.331,2.041-0.814c3.219,0.321,1.085,0.793,2.169,1.176
								c1.643-0.08,4.512-0.322,7.34,0.739C357.377,182.713,356.636,182.48,355.724,182.378z M389.16,187.287
								c-0.663,0.011-2.003,0.148-2.437-0.203C387.54,186.643,388.075,186.978,389.16,187.287z M440.444,190.919
								c-0.492,0.14-1.243,0.031-2.084-0.186C438.978,190.718,439.675,190.764,440.444,190.919z M578.329,161.471
								c-0.021,0.02-0.034,0.034-0.052,0.051C576.895,161.982,577.388,161.826,578.329,161.471z M581.125,160.352
								c0.241-0.192,0.193-0.243,0.048-0.248c-0.134,0.201-0.737,0.502-1.444,0.806C579.977,160.931,580.365,160.84,581.125,160.352
								z M263.284,163.339l0.573,0.195C262.517,163.516,262.902,163.435,263.284,163.339z"/>
							<path fill="#8F4F9C" d="M434.586,191.344c-0.181-0.093-0.228-0.186-0.266-0.28
								C434.058,191.128,434.048,191.222,434.586,191.344z"/>
							<path fill="#8F4F9C" d="M335,179.06l-0.1-0.023c-0.061,0.019-0.095,0.042-0.117,0.068L335,179.06z"/>
							<path fill="#8F4F9C" d="M539.003,181.195c-0.62,0.115-0.975,0.148-1.227,0.109
								C537.775,181.431,538.079,181.457,539.003,181.195z"/>
							<path fill="#8F4F9C" d="M594.809,152.213l-1.629,1.022c0.807-0.462,1.149-0.528,1.601-0.684
								C594.688,152.474,594.284,152.505,594.809,152.213z"/>
							<path fill="#8F4F9C" d="M610.708,146.155c0.206-0.204,0.501-0.331,0.704-0.533l-0.185-0.147
								C610.222,146.14,609.608,146.75,610.708,146.155z"/>
							<path fill="#8F4F9C" d="M597.147,152.721c0.333,0.274,1.308-0.465,2.434-1.221c-0.069,0.042-0.134,0.085-0.206,0.122
								C599.432,150.927,598.289,151.825,597.147,152.721z"/>
							<path fill="#8F4F9C" d="M599.844,151.327c0.35-0.229,0.71-0.457,1.07-0.648C600.936,150.402,600.455,150.897,599.844,151.327
								z"/>
							<path fill="#8F4F9C" d="M584.428,158.445c0.61-0.211,0.115-0.651,0.509-0.677c0.191-0.407-0.66,0.263-1.223,0.735
								C583.152,158.978,582.924,159.345,584.428,158.445z"/>
							<polygon fill="#8F4F9C" points="598.757,153.32 598.089,153.134 597.636,153.873 							"/>
							<path fill="#8F4F9C" d="M589.192,158.169l1.974-0.908c-0.068-0.059,0.15-0.232,0.43-0.426
								C590.412,157.455,589.078,158.062,589.192,158.169z"/>
							<path fill="#8F4F9C" d="M591.596,156.835c0.616-0.322,1.194-0.646,1.494-0.901
								C592.762,156.117,592.058,156.516,591.596,156.835z"/>
							<polygon fill="#8F4F9C" points="596.265,154.939 595.648,155.153 594.282,155.849 							"/>
							<path fill="#8F4F9C" d="M568.159,168.155l-2.12,1.059c-0.156,0.253,0.479,0.097,1.263-0.311
								C567.776,168.57,568.559,168.165,568.159,168.155z"/>
							<path fill="#8F4F9C" d="M575.284,166.54c-0.621,0.185-0.707,0.103-1.101,0.11l0.192,0.596L575.284,166.54z"/>
							<path fill="#8F4F9C" d="M568.992,169.448c-0.148,0.251-2.985,1.81-0.223,0.59
								C568.925,169.787,571.06,168.722,568.992,169.448z"/>
							<polygon fill="#8F4F9C" points="534.995,180.514 535.577,180.357 535.224,179.396 							"/>
							<path fill="#8F4F9C" d="M504.539,189.291c2.838-0.181,0.57-0.722,3.146-0.802c0.618-0.337-2.105,0.066-1.463-0.241
								C504.574,188.753,503.665,188.745,504.539,189.291z"/>
							<path fill="#8F4F9C" d="M506.222,188.248c0.264-0.08,0.543-0.172,0.837-0.283
								C506.58,188.102,506.357,188.185,506.222,188.248z"/>
							<polygon fill="#8F4F9C" points="152.948,166.98 151.123,167.199 152.35,167.257 							"/>
							<path fill="#8F4F9C" d="M149.729,168.527l-0.578-0.529l-0.916,0.823C148.627,168.698,149.389,168.458,149.729,168.527z"/>
							<path fill="#8F4F9C" d="M393.972,189.258l0.158-0.136c-0.256-0.205-0.675-0.275-1.514-0.415L393.972,189.258z"/>
							<polygon fill="#8F4F9C" points="369.738,185.205 370.153,185.284 369.466,184.582 							"/>
							<path fill="#8F4F9C" d="M349.311,182.563c0.824,0.165,1.819,0.202,2.646,0.368
								C350.134,182.728,349.21,181.803,349.311,182.563z"/>
						</g>
					</g>
				</g>
			</g>
		</g>
		<g opacity="0.2">
			<g>
				<g>
					<g>
						<g>
							<path fill="#8F4F9C" d="M699.591,100.968c0.611-0.479,0.116-0.604,0.152-0.735
								C698.833,101.139,699.688,101.028,699.591,100.968z"/>
							<polygon fill="#8F4F9C" points="689.984,110.028 690.057,109.741 688.818,111.364 							"/>
							<path fill="#8F4F9C" d="M680.303,117.656c1.362-0.148,3.485-2.831,5.388-3.976l0.389-0.094l0.435-1.06
								C684.447,114.233,681.92,116.662,680.303,117.656z"/>
							<path fill="#8F4F9C" d="M674.129,120.426c0.492-0.02-1.001,1.04,1.286-0.844c-0.137,0.067-0.181,0.079-0.263,0.114
								C674.94,119.857,674.644,120.073,674.129,120.426z"/>
							<path fill="#8F4F9C" d="M675.152,119.696C676.174,118.891,674.332,120.022,675.152,119.696L675.152,119.696z"/>
							<path fill="#8F4F9C" d="M670.405,123.376l1.233-1.213c-0.386,0.08-1.636,0.951-1.25,0.521
								C669.054,123.832,669.44,123.75,670.405,123.376z"/>
							<path fill="#8F4F9C" d="M669.404,124.757l0.654-0.61C669.893,124.183,669.688,124.303,669.404,124.757z"/>
							<path fill="#8F4F9C" d="M671.445,122.854l-1.387,1.292c0.268-0.054,0.427,0.117,0.649-0.576
								C670.709,123.832,670.889,123.448,671.445,122.854z"/>
							<path fill="#8F4F9C" d="M672.369,122.311c0.868-0.444,1.929-1.101,0.688,0.115
								C675.646,120.406,674.953,120.292,672.369,122.311z"/>
							<path fill="#8F4F9C" d="M680.25,118.629l1.148-0.621l0.738-0.871C681.768,117.571,680.051,118.5,680.25,118.629z"/>
							<path fill="#8F4F9C" d="M661.557,129.337c0,0.185,0.707,0.003,0.925,0.089l0.938-0.861
								C662.825,128.85,661.758,129.472,661.557,129.337z"/>
							<path fill="#8F4F9C" d="M662.481,129.426l-1.406,1.289C662.483,129.779,662.666,129.502,662.481,129.426z"/>
							<polygon fill="#8F4F9C" points="669.625,125.578 671.813,123.293 669.146,125.939 							"/>
							<polygon fill="#8F4F9C" points="655.611,133.426 656.293,132.527 655.024,134.051 							"/>
							<path fill="#8F4F9C" d="M651.708,136.199c0.498-0.678-1.183,0.183-0.582-0.424c-1.061,0.746-1.854,1.555-2.569,2.283
								C649.379,137.378,650.346,136.793,651.708,136.199z"/>
							<path fill="#8F4F9C" d="M647.327,139.241c0.407-0.346,0.801-0.749,1.229-1.183
								C648.12,138.42,647.707,138.801,647.327,139.241z"/>
							<path fill="#8F4F9C" d="M658.38,132.488c-0.172,0.007-0.541-0.03-1.471,0.49l0.854-0.071
								C657.951,132.779,658.164,132.635,658.38,132.488z"/>
							<path fill="#8F4F9C" d="M657.793,132.903l-0.029,0.003c-0.672,0.45-1.137,0.761-1.336,0.895
								C656.6,133.688,657.011,133.418,657.793,132.903z"/>
							<path fill="#8F4F9C" d="M658.536,132.383c-0.058,0.039-0.1,0.067-0.156,0.105
								C658.463,132.482,658.507,132.469,658.536,132.383z"/>
							<path fill="#8F4F9C" d="M665.39,128.206c-0.751,0.864-2.503,2.412-0.459,1.402
								C665.405,128.897,664.247,129.49,665.39,128.206z"/>
							<path fill="#8F4F9C" d="M659.601,132.295l1.712-1.065c-0.098-0.07-0.49,0.002-0.105-0.409L659.601,132.295z"/>
							<polygon fill="#8F4F9C" points="658.868,132.967 659.601,132.295 658.967,132.69 							"/>
							<path fill="#8F4F9C" d="M650.435,137.713c-0.626,0.625-1.416,1.153-2.301,1.759c1.012-0.552,2.036-1.159,2.984-1.771
								C651.178,137.502,651.46,137.034,650.435,137.713z"/>
							<path fill="#8F4F9C" d="M654.048,135.435c-0.045,0.041-0.103,0.092-0.146,0.13
								C654.021,135.527,654.105,135.483,654.048,135.435z"/>
							<path fill="#8F4F9C" d="M639.229,145.135c0.063-0.007,0.121-0.014,0.187-0.021c-0.002-0.028-0.007-0.053-0.006-0.083
								L639.229,145.135z"/>
							<path fill="#8F4F9C" d="M651.324,137.662c0.773-0.396,1.148-0.766,1.477-1.161c-0.503,0.412-1.068,0.797-1.683,1.2
								C651.091,137.79,651.103,137.83,651.324,137.662z"/>
							<path fill="#8F4F9C" d="M644.963,141.003c0.426-0.168,0.896-0.381,1.383-0.612
								C645.903,140.515,645.037,140.823,644.963,141.003z"/>
							<path fill="#8F4F9C" d="M653.598,135.632c0.031-0.03,0.061-0.057,0.096-0.089
								C653.409,135.628,653.463,135.646,653.598,135.632z"/>
							<path fill="#8F4F9C" d="M653.598,135.632c-0.332,0.304-0.561,0.591-0.797,0.869c0.414-0.328,0.789-0.644,1.102-0.936
								C653.798,135.601,653.685,135.624,653.598,135.632z"/>
							<path fill="#8F4F9C" d="M637.895,149.118c-0.07-0.419,1.7-1.896,3.617-2.542c1.496-1.272-0.266-1.691-2.096-1.462
								c0.038,0.178,0.123,0.313-1.464,1.528c0.709-0.17,4.058-1.822,2.803-0.66c-2.162,1.522-1.933,0.985-3.143,1.46
								c1.193-0.135-2.517,2.331-1.654,2.663l1.864-1.405C637.918,148.775,637.287,149.359,637.895,149.118z"/>
							<path fill="#8F4F9C" d="M642.646,143.148l0.661-0.484c-0.82,0.446-1.465,0.673-2.658,1.075
								c-1.058,0.869-1.228,1.129-1.238,1.292c0.001,0,0.88-0.486,1.734-1.017c0.853-0.534,1.705-1.067,1.705-1.067L642.646,143.148
								z"/>
							<path fill="#8F4F9C" d="M646.388,140.674c-0.302,0.708-1.856,1.928-0.594,1.669c2.005-1.328,1.222-1.216,2.325-2.15
								c-3.197,2.189,0.805-0.804-1.68,0.507c0.6-0.474,1.162-0.863,1.694-1.228c-0.613,0.333-1.213,0.643-1.788,0.919
								c0.035-0.01,0.061-0.017,0.09-0.025l0.015-0.011v0.008c0.169-0.045,0.233-0.047,0.059,0.028
								c-0.008,0.012-0.047,0.039-0.063,0.051c0.011,0.065-0.021,0.147-0.059,0.231c-0.99,0.533-0.209,0.001,0.059-0.231
								c0-0.024,0.014-0.058,0.005-0.079l-0.015,0.003l-3.129,2.299C644.027,142.27,644.884,141.703,646.388,140.674z"/>
							<path fill="#8F4F9C" d="M663.768,131.556c-0.121,0.038-0.135,0.009-0.16-0.011
								C663.431,131.731,663.373,131.815,663.768,131.556z"/>
							<path fill="#8F4F9C" d="M662.3,132.255c0.198-0.21,0.293-0.485,1.075-0.973c0.73-0.348,0.116,0.171,0.232,0.263
								c0.391-0.409,1.417-1.356-0.134-0.538l-0.192,0.205c-1.375,0.771-3.337,1.474-3.146,1.27
								C660.732,132.54,661.223,132.537,662.3,132.255z"/>
							<path fill="#8F4F9C" d="M654.358,136.725c0,0-0.637,0.504-1.272,1.009c-0.649,0.486-1.298,0.972-1.298,0.972
								s0.398-0.146,0.797-0.292c0.4-0.142,0.792-0.299,0.792-0.299l-0.193-0.139C654.748,137,654.267,136.999,654.358,136.725z"/>
							<polygon fill="#8F4F9C" points="638.801,145.14 638.93,144.534 637.665,146.033 							"/>
							<polygon fill="#8F4F9C" points="635.229,147.325 635.159,146.906 634.331,147.675 							"/>
							<path fill="#8F4F9C" d="M405.713,183.576l-0.962-0.038C405.204,183.574,405.497,183.582,405.713,183.576z"/>
							<path fill="#8F4F9C" d="M412.549,184.663l0.197-0.168C412.412,184.555,412.27,184.614,412.549,184.663z"/>
							<path fill="#8F4F9C" d="M539.513,182.48c-1.42-0.16-3.02-0.499-2.791-0.083l0.481,0.366
								C538.143,182.543,538.879,182.481,539.513,182.48z"/>
							<path fill="#8F4F9C" d="M469.141,188.437c0.13,0.048,0.266,0.098,0.4,0.148c0.344-0.135,0.667-0.263,0.958-0.377
								C470.09,188.277,469.627,188.355,469.141,188.437z"/>
							<path fill="#8F4F9C" d="M468.067,190.187l-1.82-0.396C466.654,189.914,467.239,190.045,468.067,190.187z"/>
							<path fill="#8F4F9C" d="M368.407,177.748l-1.172,0.245C368.951,178.289,368.234,177.938,368.407,177.748z"/>
							<path fill="#8F4F9C" d="M597.081,166.727c-1.16,0.303-2.047,0.627-2.829,0.905
								C595.669,167.331,596.867,167.203,597.081,166.727z"/>
							<path fill="#8F4F9C" d="M409.109,179.449c-0.587-0.013-0.847,0.036-0.845,0.134
								C408.868,179.603,409.216,179.574,409.109,179.449z"/>
							<path fill="#8F4F9C" d="M591.036,168.816c0.212-0.032,0.412-0.082,0.625-0.121c0.789-0.368,1.586-0.723,2.591-1.063
								C593.192,167.824,592.02,168.133,591.036,168.816z"/>
							<path fill="#8F4F9C" d="M233.211,164.01c-0.1-0.015-0.219-0.019-0.31-0.037C232.875,164.033,233.011,164.03,233.211,164.01z"
								/>
							<path fill="#8F4F9C" d="M193.2,164.684c0.383-0.103,1.016-0.227,1.612-0.35C194.515,164.362,194.027,164.46,193.2,164.684z"
								/>
							<path fill="#8F4F9C" d="M620.464,155.407C621.231,154.96,620.565,155.298,620.464,155.407L620.464,155.407z"/>
							<path fill="#8F4F9C" d="M625.078,154.866c-0.144,0.133-0.24,0.256-0.213,0.354
								C624.88,155.093,624.958,154.976,625.078,154.866z"/>
							<path fill="#8F4F9C" d="M583.63,174.419c-0.025,0.008-0.045,0.016-0.073,0.025
								C583.834,174.433,583.785,174.433,583.63,174.419z"/>
							<path fill="#8F4F9C" d="M621.73,154.947c-0.317,0.111-0.676,0.254-1.059,0.425
								C620.85,155.315,621.172,155.188,621.73,154.947z"/>
							<path fill="#8F4F9C" d="M621.477,154.852c0.277-0.131,0.494-0.233,0.702-0.332
								C622.243,154.403,622.135,154.41,621.477,154.852z"/>
							<path fill="#8F4F9C" d="M619.388,156.015c0.443-0.247,0.869-0.454,1.284-0.643c-0.167,0.057-0.242,0.07-0.208,0.035
								C620.237,155.535,619.918,155.716,619.388,156.015z"/>
							<path fill="#8F4F9C" d="M306.021,166.333c-0.057-0.02-0.122-0.043-0.185-0.066
								C304.92,166.341,305.316,166.355,306.021,166.333z"/>
							<path fill="#8F4F9C" d="M516.939,189.695c0.041-0.011,0.064-0.017,0.101-0.027c-0.042-0.002-0.096-0.005-0.134-0.007
								L516.939,189.695z"/>
							<path fill="#8F4F9C" d="M513.735,190.209c1.337-0.621,2.12-0.601,3.17-0.548l-1.161-1.184L513.735,190.209z"/>
							<path fill="#8F4F9C" d="M389.349,181.022l2.163,0.764c-2.795,0.175-4.705-0.375-2.704,0.522
								c0.537-1.274,8.693,1.311,9.224,0.021l1.424,0.524c-0.419-0.083-0.5-0.015-0.914-0.097c2.755,1.113,2.28-0.612,5.938,0.158
								c1.269,0.305,2.136,0.641,1.234,0.663l2.917,0.119c0.83,0.157,0.59,0.358-0.236,0.202l4.39,0.564l-0.039,0.035
								c0.657-0.119,2.121-0.235,2.831-0.272c1.083,0.357-0.579,0.061-0.319,0.27l2.471,0.032c0.937,0.494-1.121,0.536-2.789,0.239
								c2.069,1.669,2.058-0.027,6.838,1.448l-2.317-0.152c1.367,0.988,3.203,0.937,5.736,1.77
								c-0.586-0.333-5.034-1.903-2.349-1.881c0.729,0.202,1.703,0.383,3.162,0.305c-0.051,0.48,1.354,0.551,3.096,0.759
								l-0.201,0.618c1.904,0.075,1.8-0.287,2.944-0.432c2.091,0.316,2.467,0.861,2.912,1.335c3.354,0.508-2.229-1.07,1.768-0.708
								c2.766,0.596,4.769,0.535,8.16,0.501c1.938,0.423-0.383,0.353,0.301,0.608l1.791-0.326c0.424,0.057,0.271,0.198,0.194,0.27
								c1.484-0.046,0.183-0.62,2.501-0.561c0.683-0.649,4.643,1.43,7.568,0.875c0.689,0.241-0.371,0.362-0.175,0.627
								c3.96-0.194,3.396-0.144,6.661-0.625l2.718,0.594c-1.987-0.617,0.621-0.992,2.894-1.353
								c-0.702-0.254-1.299-0.499-1.702-0.622c0,0,0.9-0.019,1.802-0.078c0.9-0.05,1.801-0.1,1.801-0.1
								c0.428,0.123,0.058,0.328-0.543,0.571c0.247-0.047,0.48-0.092,0.665-0.127c1.273,0.288,0.593,0.63-0.345,0.95
								c-0.43-0.15-0.859-0.3-1.277-0.446c-0.907,0.358-1.762,0.742-1.596,1.123c0.237-0.055,0.692-0.102,1.19-0.118
								c-0.238,0.096-0.392,0.184-0.287,0.252c0.119,0.072,0.503-0.054,1.1-0.193l0.787,0.745l0.211-0.275l4.707,0.635
								c3.406-0.566,6.364-1.65,11.703-1.858c-1.326,0.517-0.286,0.854-0.357,1.475c-1.461-0.676-4.156,0.221-6.939,0.049
								c1.45,0.089,1.126,0.38,0.755,0.478l4.97-0.527c-0.114,0.493,1.053,0.423,2.35,0.59c-0.98-0.983,3.692-0.736,5.703-1.082
								c0.131,0.334-0.347,0.687-2.81,0.652c2.729,0.703,3.489-1.242,6.162-0.652c-0.6,0.02-0.925-0.026-1.158,0.149
								c1.395-0.325,4.828-0.153,4.032,0.155l-0.599,0.018c0.998,0.005,2.256,0.015,3.59-0.042c1.333-0.086,2.742-0.199,4.043-0.335
								c2.603-0.273,4.771-0.643,5.039-1.085c0.047,0.107-0.455,1.054-0.686,1.24c0,0,1.727-0.819,3.454-1.638
								c0.857-0.409,1.715-0.818,2.358-1.125c0.638-0.33,1.063-0.55,1.063-0.55c-0.565,0.78,1.981,2.305-1.285,3.003
								c0.958,0.06,2.14,0.021,4.114-0.43c-0.657-0.037-1.702-0.886-0.828-1.043c2.491,0.561,1.715,0.26,4.77,0.642
								c-0.983-0.056-0.026-1.307,1.5-1.427c-0.22,0.195,0.251,1.111-0.295,1.287l3.674-1.51c-0.924,0.299-0.056,0.964,0.836,1.191
								c-0.212-0.099,0.615-0.146,1.612-0.276c0.997-0.131,2.171-0.275,2.668-0.406l-1.64-0.017
								c4.301-0.476,3.995-2.202,8.217-2.778c-0.471,0.306-1.039,1.603,1.141,1.417c0.447-0.363,1.428-1.196,2.738-2.099
								c1.302-0.952,2.933-1.953,4.728-2.541l0.77,0.181l2.748-0.936c-1.57,1.186-6.176,4.021-8.802,5.208
								c1.643,0.001,0.512,0.311,2.89-0.183c0.898,0.134-1.214,0.722-1.914,0.881l5.591-0.922c-0.375-0.61,4.109-1.516,3.779-2.021
								l-5.877,1.895c-0.363-0.611,3.107-2.573,7.027-3.241c1.053,0.061-0.486,1.319-0.359,1.521
								c0.464-0.318,3.624-1.182,4.006-1.16c0,0-0.391,0.192-0.781,0.385c-0.39,0.2-0.787,0.367-0.787,0.367
								c2.229-0.27,3.318-1.755,6.065-1.785c0.904-0.186,2.894,0.155,2.948-0.269c-1.661-0.368-2.528-2.596-1.713-3.398
								c0.314-0.045,4.846-0.437,5.945-0.41c0.804,0.065,0.362,0.578-0.112,1.089c-0.473,0.519-0.997,0.972-0.298,1.069
								c0.008-0.177,0.745-0.652,1.06-0.824c0.968-0.137-0.227,0.666,1.763-0.039c0.143-0.758,4.105-1.215,0.786-0.848
								c1.907-0.796,2.128-0.514,4.427-1.26c-0.864-0.193,1.61-2.07,3.498-2.86c-0.061,0.197,0.455,0.285,0.696,0.301
								c3.957-1.391,6.181-1.879,9.862-3.228c0.398,0.029,2.249-0.439,1.599,0.113c0.49-0.299,0.889-0.702,1.992-1.201
								c2.378-0.372-2.451,1.144-0.544,1.101c-0.005-0.428,2.682-1.736,4.172-2.64c-0.728-0.363-3.698,1.466-5.212,2.342
								c-0.302-0.751,2.118-2.769,5.709-4.715c2.893-1.459,1.508-0.049,1.978-0.379c2.83-1.125,3.878-1.955,4.785-2.769
								c0.919-0.79,1.739-1.468,4.139-2.29c2.036-0.387,0.548,0.924,1.115,1.08c-2.295,1.336-3.802,1.46-5.404,2.259l2.094-0.73
								c-0.687,0.518-2.206,1.444-3.158,1.675c0.879-0.101,3.196-1.236,5.872-2.497c1.339-0.629,2.764-1.298,4.12-1.936
								c1.371-0.608,2.672-1.186,3.754-1.666c0.655-0.559,1.839-1.41,1.137-1.276l-1.275,0.774
								c-1.403,0.265,2.187-1.862,0.436-1.147c1.614-1.218,3.348-2.699,5.93-3.814l0.76,0.286c-0.14-0.128-1.789,0.551-2.394,1.09
								c0.895-0.792,4.191-1.319,4.926-2.63l-1.938,0.565c1.631-1.181,3.395-3.059,5.629-4.143
								c-1.274,0.053-0.457,0.352-2.325,0.638c0.877-0.008-0.489,0.793-1.754,1.54c-1.277,0.722-2.479,1.346-1.17,1.174
								c-1.99,0.14-2.921,1.181-5.329,1.684c0.16,0.144,0.918-0.056-0.955,0.842c-0.055,0.097-0.214,0.268-0.317,0.374
								c-0.059,0.024-0.08,0.033-0.131,0.053c0.041-0.012,0.072-0.021,0.112-0.033c-0.064,0.069-0.068,0.079,0.042-0.013
								c0.477-0.157,0.879-0.253,1.076-0.231c-0.688,0.899-3.61,2.46-4.485,3.207c-1.142,0.482,0.354-0.442-0.344-0.323l-1.34,1.051
								c-0.354-0.328-3.283,0.758-0.789-0.74l-2.358,1.118c-1.494,0.443-3.437,1.271-4.529,2.009
								c-1.146,0.447-2.59,1.805-1.771,1.019c0,0-0.223,0.127-0.558,0.318c-0.331,0.198-0.783,0.439-1.242,0.665
								c-0.913,0.464-1.826,0.929-1.826,0.929l-0.08-0.088c-1.869,0.765-3.708,1.75-5.653,2.679
								c-0.973,0.464-1.972,0.915-3.012,1.314c-1.049,0.376-2.158,0.652-3.312,0.867c-1.233,0.575-2.506,1.19-4.684,1.856
								l-0.547-0.213c-0.795,0.365-2.056,0.726-3.187,1.074c-1.126,0.365-2.164,0.597-2.453,0.917
								c-2.122-0.451-8.124,2.319-11.123,2.991l0.025,0.517c-2.054,0.494-3.977,1.132-6.469,1.978l0.266,0.395
								c-2.112,0.907-5.703,1.196-9.218,1.872c0.203-0.215,1.103-0.351,1.755-0.376c-2.205-0.073-4.371,0.551-6.493,1.202
								c-1.06,0.325-2.108,0.657-3.138,0.91c-0.515,0.125-1.024,0.237-1.53,0.305c-0.509,0.052-1.011,0.074-1.507,0.055
								c-0.929,0.305-1.632,0.354-2.321,0.344c0.089-0.014,0.167-0.035,0.233-0.059c-0.098,0.013-0.244,0.033-0.393,0.054
								c-0.435-0.013-0.884-0.036-1.366-0.036c0.417,0.047,0.814,0.078,1.155,0.069c-0.736,0.121-1.846,0.344-2.927,0.621
								l-0.538-0.406c-0.088,0.018-0.159,0.033-0.251,0.051c-1.1-0.014-0.833,0.356-0.206,0.628
								c-0.542,0.162-1.035,0.332-1.412,0.506c-0.981-0.643-2.848,0.705-4.151,0.042c-0.694,0.478-5.516,0.875-6.017,1.782
								c-0.05-0.106-0.381-0.125,0.216-0.193c-1.246,0.031-2.487,0.062-3.572,0.415l-0.581-0.555l-2.622,1.098
								c-1.67-0.195-2.366-0.39-0.778-0.986c-3.876,0.999-3.169,0.473-6.473,1.397l0.138-0.405
								c-1.195,0.086-3.083,0.729-3.824,0.445c-1.362-0.321-4.669-0.049-8.519-0.058c-3.845,0.053-8.22,0.123-11.662-0.162
								c1.334,1.177-3.196-0.545-3.473,0.343c-0.398-0.281-1.354-0.45-0.239-0.674c-3.513,0.202-5.256-0.465-7.7,0.172
								c-0.393-0.293,0.763-0.374,0.411-0.552c-0.283,0.048-1.122,0.195-1.48,0.016c-0.351-0.178,0.521-0.21,1.079-0.309
								c-3.577-0.097-3.976,0.737-4.272,1.523c-1.804-0.457-2.712-0.418-4.054,0.022c-0.62-0.301-1.659-0.641,0.574-0.592
								c-1.253-0.118-7.63-0.87-7.804-0.241c-0.381-0.188-1.75-0.153-2.085-0.118c-2.808-0.278-3.05-0.356-5.815-0.531l0.756,0.169
								c-1.157,0.669-2.313-0.012-4.545-0.134l0.072-0.072c-5.042-1.084-2.23,0.036-7.19-1.12l0.221,0.505
								c-0.586,0.996-4.386-1.104-7.342-1.072l1.02,0.399c-1.637,0.151-4.277-1.917-5.85-2.264c-0.335-0.137,0.567-0.067,1.06-0.07
								c-4.091-1.166-0.621,0.551-3.75,0.275c-0.528-0.413,0.853-0.754-1.23-1.1c-1.002-0.405-6.219,0.27-8.977-0.813
								c0.59,0.351,1.177,0.701-0.295,0.682c-2.228-0.231-5.831-1.855-7.95-1.368c-0.27-0.115-0.366-0.199-0.367-0.265
								c-1.721-0.057-5.543-0.512-6.632-0.237c-1.292-1.896-10.627-0.93-10.337-2.444l-5.202-0.803l0.162-0.131
								c-3.299-0.662-4.534-0.507-5.762-0.348c-0.749-0.235-0.165-0.279-0.088-0.347c-4.793-1.145-5.285-1.162-9.479-1.121
								l-0.338-0.562c-1.151,0.092-6.872-1.99-11.729-2.24c0.056-0.047,0.171-0.125,0.561-0.129
								c-5.445-0.362-12.593-3.542-14.854-2.098l-3.611-0.141c4.554,0.887-0.809,0.662,1.025,1.265
								c-1.815-0.189-4.563-1.298-2.337-1.028l0.331,0.146c0.964-0.794-5.633-1.263-5.41-1.869
								c-9.026-1.374-17.758-3.211-26.255-4.338l0.884,0.855l-2.954-0.435c-0.758-0.257-0.972-0.709,1.137-0.396
								c-1.058-0.572-3.593-0.088-3.67,0.059c-4.109-0.785,1.722-0.655,0.453-0.823l-1.734-0.15l0.38,0.131
								c-1.437,0.131-1.597,0.431-4.137,0.094c-1.593-0.336-0.775-0.546-1.406-0.649c0.009-0.049-0.201-0.106-0.971-0.13
								l-3.743-0.442l1.439,0.727c-1.69,0.115-3.518-0.387-1.857,0.439c-2.428-1.322-13.95-1.63-15.488-2.034
								c-2.364,0.278-4.664,0.131-7.515-0.092c0.704,0.163,1.091,0.837-1.361,0.609c0.966-1.308-4.481-0.748-6.443-1.785
								c0.881,0.353-0.875,0.327-2.503,0.34c-1.63,0.021-3.132,0.137-1.743,0.598c-2.056-0.13-0.115-0.502-1.673-0.835
								c-2.458,0.249-5.156,0.087-8.006-0.004c-2.85-0.07-5.851-0.208-8.884-0.037c-0.088,0.18,0.935,0.4-0.355,0.724l-3.237-0.723
								c-1.196,0.145-1.052,1.067-3.271,0.564c0.317,0.132,0.79,0.333-0.008,0.428c-5.955-0.072-12.009,0.604-18.045,1.456
								c-3.029,0.347-6.038,0.88-9.066,1.25c-1.511,0.203-3.036,0.316-4.547,0.504c-1.513,0.181-3.03,0.323-4.556,0.417
								c1.676,0.019,0.608,0.262-0.617,0.515c0.814-0.076,0.067,0.43,0.271,0.633c0,0-1.273,0.081-2.547,0.162
								c-1.28,0.06-2.543,0.218-2.543,0.218c-0.751,0.859-5.271,1.306-5.634,2.043l1.529-0.483c-1.885,1.218,3.278,0.922,3.183,1.93
								c2.106-1.438,6.325-0.082,9.875-2.018c0.873,0.028-0.657,0.443-0.168,0.574c0.887-0.572,2.023-0.954,4.226-1.082
								l-0.228,0.138c3.033-0.522,5.219-0.785,7.501-1.016c2.289-0.188,4.685-0.268,8.125-0.546l-0.559-0.412
								c1.483-0.109,1.808-0.002,2.511,0.041c1.623-0.906-4.149,0.437-2.689-0.525c0.517,0.182,1.425,0.198,2.52,0.133
								c1.099-0.029,2.385-0.126,3.652-0.22c2.534-0.187,4.991-0.351,5.689,0.141c2.281-0.117-0.705-0.519,1.578-0.625l0.623,0.267
								l0.555-0.409c1.503-0.01,2.276,0.324,2.343,0.572c-0.364-0.012-1.027,0.12-1.415,0.161c1.954,0.257,5.458-0.391,6.129-0.297
								l-2.198-0.082c1.553-0.165,3.197-0.222,4.882-0.257c1.685-0.035,3.41-0.07,5.128-0.105c3.437-0.058,6.849-0.015,9.873-0.303
								l-0.454-0.229c4.624-0.323,3.686,0.36,8.754,0.337l-0.187,0.046c1.022-0.18,2.382-0.264,3.766-0.14
								c-1.29,0.184,2.376,0.654,0.686,0.841c5.017-0.141,2.487-0.199,5.843-0.827l0.736,0.416c1.149-0.271,1.256-0.43,3.791-0.32
								c-2.096,0.147,1.568,0.695-0.784,0.925c5.223,1.243,7.937-0.185,10.25,1.264c2.529-0.775-4.522-1.033-3.142-1.104
								c-1.111-0.442,2.079-0.579,3.731-0.297c1.691,0.201,2.746,1.584,6.99,2.022c-0.422-0.054-0.458,0.019-0.879-0.035
								c1.557,0.447,3.15,0.016,5.048,0.668c1.165-0.487,2.523,0.334,2.934-0.414l-3.916-0.279c2.228,0.07,4.42-0.653,7.997,0.291
								c-0.304,0.121-1.411,0.186-2.168,0.203c1.032,0.373,2.064,0.119,3.135,0.503c-0.415,0.736-4.747-0.458-7.185-0.118
								c1.099,0.467,4.539-0.041,3.246,0.67c1.843-0.868,4.153,0.688,7.13,0.24l-0.253,0.445c0.463-0.014,1.434-0.111,2.268,0.012
								l-1.596,0.409c2.394-0.223,4.407,1.076,6.669,1.115c-4.656-0.662-0.964-0.718-2.884-1.347
								c5.836,0.213,3.128,1.695,9.583,2.432c-0.878-0.076-3.222-0.772-1.829-0.791c1.209,0.277,2.795,0.716,3.508,1.076
								c4.269,0.565-0.579-0.584,1.277-0.59c1.36,0.797,2.125,0.093,4.021,0.201l-0.063,0.479c4.799,1.077,1.445-0.789,5.75,0.291
								l-1.952,0.358l2.302,0.202l-0.558,0.465c2.54,0.004,3.294,0.231,5.692,0.784c-0.507-0.431,0.461-0.81,2.609-0.461
								c1.416,0.531-0.896,0.313,2.157,0.761c-0.737,0.181-1.551,0.428-2.801-0.235c-0.162,0.132-0.727,0.184-0.893,0.313
								c1.521,0.592,3.946,0.745,5.048,0.927c-0.421-0.089-0.923-0.201-1.171-0.313l4.521,0.088
								c0.664,0.299,0.088,0.346-0.481,0.394c0.902,0.101,1.557-0.009,2.877,0.176c-0.406,0.328-0.394,0.741-2.283,0.602
								l4.273,0.297c0.251,0.216,2.075,0.834,1.505,0.882c2.288,0.628,5.842,0.241,8.877,1.08c0.173-0.047,0.508-0.063,1.174-0.004
								c2.886,0.594,5.377,1.514,8.911,1.581l1.833,1.032c2.723,0.31-2.493-1.331,2.041-0.815c3.219,0.321,1.086,0.793,2.169,1.176
								c1.643-0.08,4.513-0.322,7.34,0.739C391.002,181.357,390.261,181.124,389.349,181.022z M422.785,185.931
								c-0.663,0.011-2.003,0.148-2.437-0.203C421.164,185.286,421.699,185.622,422.785,185.931z M474.069,189.563
								c-0.492,0.14-1.244,0.031-2.084-0.186C472.603,189.362,473.3,189.408,474.069,189.563z M611.954,160.115
								c-0.021,0.02-0.035,0.034-0.052,0.051C610.52,160.625,611.013,160.469,611.954,160.115z M614.749,158.996
								c0.242-0.192,0.193-0.243,0.049-0.248c-0.134,0.2-0.738,0.501-1.444,0.805C613.602,159.574,613.989,159.483,614.749,158.996z
								 M296.909,161.983l0.573,0.195C296.142,162.16,296.526,162.079,296.909,161.983z"/>
							<path fill="#8F4F9C" d="M468.211,189.987c-0.181-0.093-0.228-0.186-0.266-0.28
								C467.683,189.772,467.672,189.865,468.211,189.987z"/>
							<path fill="#8F4F9C" d="M368.624,177.703l-0.1-0.022c-0.061,0.019-0.095,0.042-0.117,0.067L368.624,177.703z"/>
							<path fill="#8F4F9C" d="M572.628,179.838c-0.62,0.116-0.976,0.148-1.228,0.11C571.4,180.074,571.704,180.1,572.628,179.838z"
								/>
							<path fill="#8F4F9C" d="M628.434,150.856l-1.629,1.022c0.806-0.463,1.149-0.528,1.601-0.685
								C628.312,151.117,627.909,151.148,628.434,150.856z"/>
							<path fill="#8F4F9C" d="M644.332,144.798c0.207-0.204,0.502-0.331,0.705-0.533l-0.186-0.147
								C643.846,144.783,643.232,145.394,644.332,144.798z"/>
							<path fill="#8F4F9C" d="M630.772,151.364c0.333,0.274,1.308-0.465,2.433-1.221c-0.068,0.042-0.133,0.085-0.205,0.122
								C633.057,149.57,631.913,150.468,630.772,151.364z"/>
							<path fill="#8F4F9C" d="M633.469,149.97c0.349-0.229,0.71-0.457,1.07-0.648C634.56,149.045,634.079,149.541,633.469,149.97z"
								/>
							<path fill="#8F4F9C" d="M618.052,157.088c0.61-0.211,0.116-0.651,0.51-0.677c0.19-0.406-0.66,0.263-1.224,0.735
								C616.776,157.621,616.549,157.989,618.052,157.088z"/>
							<polygon fill="#8F4F9C" points="632.381,151.963 631.713,151.777 631.261,152.516 							"/>
							<path fill="#8F4F9C" d="M622.817,156.812l1.974-0.908c-0.069-0.059,0.149-0.232,0.429-0.426
								C624.037,156.098,622.703,156.706,622.817,156.812z"/>
							<path fill="#8F4F9C" d="M625.22,155.478c0.617-0.322,1.194-0.646,1.495-0.901C626.387,154.76,625.682,155.159,625.22,155.478
								z"/>
							<polygon fill="#8F4F9C" points="629.89,153.582 629.273,153.796 627.907,154.492 							"/>
							<path fill="#8F4F9C" d="M601.783,166.798l-2.119,1.059c-0.156,0.253,0.479,0.097,1.263-0.312
								C601.401,167.213,602.183,166.808,601.783,166.798z"/>
							<path fill="#8F4F9C" d="M608.909,165.183c-0.622,0.186-0.707,0.103-1.102,0.11l0.192,0.597L608.909,165.183z"/>
							<path fill="#8F4F9C" d="M602.617,168.092c-0.148,0.25-2.985,1.809-0.223,0.59C602.55,168.43,604.685,167.365,602.617,168.092
								z"/>
							<polygon fill="#8F4F9C" points="568.619,179.157 569.202,179 568.849,178.04 							"/>
							<path fill="#8F4F9C" d="M538.164,187.935c2.838-0.181,0.57-0.722,3.146-0.802c0.618-0.337-2.104,0.066-1.463-0.241
								C538.199,187.397,537.29,187.389,538.164,187.935z"/>
							<path fill="#8F4F9C" d="M539.847,186.892c0.264-0.081,0.542-0.172,0.836-0.283
								C540.205,186.745,539.982,186.828,539.847,186.892z"/>
							<polygon fill="#8F4F9C" points="186.573,165.624 184.748,165.842 185.974,165.901 							"/>
							<path fill="#8F4F9C" d="M183.353,167.171l-0.578-0.529l-0.916,0.823C182.252,167.341,183.014,167.102,183.353,167.171z"/>
							<path fill="#8F4F9C" d="M427.597,187.901l0.158-0.136c-0.256-0.205-0.675-0.274-1.514-0.415L427.597,187.901z"/>
							<polygon fill="#8F4F9C" points="403.362,183.849 403.777,183.927 403.09,183.225 							"/>
							<path fill="#8F4F9C" d="M382.936,181.207c0.824,0.165,1.819,0.202,2.646,0.368
								C383.759,181.372,382.835,180.447,382.936,181.207z"/>
						</g>
					</g>
				</g>
			</g>
		</g>
		<path fill="none" d="M129.024,170.52c100.212-26.201,204.658,19.65,304.869,19.65c84.686,0,136.91-24.891,201.833-75.98
			c4.235-3.93,8.471-6.551,12.703-10.48"/>
	</g>
</g>
</svg>
