<?xml version="1.0" encoding="utf-8"?>
<!-- Generator: Adobe Illustrator 16.0.0, SVG Export Plug-In . SVG Version: 6.00 Build 0)  -->
<!DOCTYPE svg PUBLIC "-//W3C//DTD SVG 1.1//EN" "http://www.w3.org/Graphics/SVG/1.1/DTD/svg11.dtd">
<svg version="1.1" id="圖層_1" xmlns="http://www.w3.org/2000/svg" xmlns:xlink="http://www.w3.org/1999/xlink" x="0px" y="0px"
	 width="1133.86px" height="850.39px" viewBox="0 0 1133.86 850.39" enable-background="new 0 0 1133.86 850.39"
	 xml:space="preserve">
<rect x="166.797" y="122.247" fill="none" width="665.218" height="559.42"/>
<g>
	<g>
		<path stroke="#E60012" stroke-width="18" stroke-miterlimit="10" d="M111,352c0-4,0-10-5-11c-4,0-9,1-13,2c0-3,0-5,0-8
			c34-5,67-9,101-12c3,15,7,29,10,44c-2,0-4,0-5,0c-5-13-9-30-24-34c-16,1-33,1-49,6c-3,0-6,4-6,8c0,22-2,44-1,66c13-2,27-2,40-7
			c7-8,4-19,7-28c1,0,3,0,4,0c-1,22-2,44-2,66c-2,0-3,0-5,0c2-8,1-15-1-23c-1-3-5-5-8-5c-12,0-23,3-35,4c-1,24-2,49,0,73
			c0,8,10,6,16,4c0,3,0,5,0,8c-14,2-29,3-43,7c0-3-1-6,0-7c4-4,11-1,15-5c1-2,2-4,2-6C110,447,110,399,111,352L111,352z"/>
		<path stroke="#E60012" stroke-width="18" stroke-miterlimit="10" d="M230,442c-1,13,1,25,7,36c8,12,25,15,38,8c6-4,11-9,15-15
			c5-10,8-20,10-31c3-36,6-71,8-106c0-8-8-12-15-9c0-2,0-6,0-6c13-3,26-2,39,0c0,0,0,3,0,5c-4,0-8,0-12,1c-1,1-2,2-3,3c-2,3-2,6-3,9
			c-1,11-1,21-3,32c0,3,0,7,0,10c-1,5-1,9-2,14c0,3,0,7,0,10c-1,5-1,9-2,14c-1,15-2,30-6,45c-2,4-3,7-5,11c-11,22-41,33-62,17
			c-10-9-13-23-13-35c1-39,5-78,5-117c0-3,0-8-4-10c-4-1-8-1-12,1c0-2,0-6,0-6c15-4,30-2,45-4c-1,2-1,5-1,7c-5-1-10,0-14,3
			c-2,3-3,7-4,11C233,374,232,408,230,442L230,442z"/>
		<path stroke="#E60012" stroke-width="18" stroke-miterlimit="10" d="M422,497c-2,0-4,0-4,0c-16-49-33-95-51-142c-1-2,0-3-1-5
			c-2-4-4-9-6-13c-1-2-1-3-1-5c-5,47-10,94-13,142c-1,8,5,14,14,12c0,3,0,7-1,7c-12,3-25-1-37,0c1-2,1-5,1-7c3,1,7,0,10-1
			c1-1,2-2,3-3c2-2,4-5,4-8c4-47,9-94,12-141c1-8-8-9-15-8c0-2,0-6,0-6c8-2,17-1,26-1c21,50,39,102,56,154c1-7,2-13,3-20
			c1-8,1-17,2-25c5-28,6-54,11-82c0-4,1-8,0-12c-3-5-10-4-15-6c-1,0,0-5,1-5c13-1,26,0,39,2c-1,2-1,5-1,7c-5,0-9-2-13,0
			c-2,1-4,4-4,6C434,391,427,443,422,497L422,497z"/>
		<path stroke="#E60012" stroke-width="18" stroke-miterlimit="10" d="M516,507c-2-1-3-1-5-1c-7-45-14-88-19-134c-2-11-3-23-6-34
			c-5,50-17,100-18,150c-1,6,7,7,13,7c0,3,0,5-1,8c-12-2-24-3-36-4c0-3,0-5,0-8c5,1,11,3,15-1c2-3,3-7,3-10c1-8,2-16,3-24
			c0-5,1-10,1-15c3-23,6-45,10-68c1-12,5-23,3-35c-1-7-9-6-15-6c1-3,1-5,1-8c10,2,20,1,30,4c10,52,15,105,23,157c16-37,33-73,51-109
			c6-12,10-24,16-36c10,1,19,4,29,4c-1,3-1,5-1,8c-6-2-13-4-17,2c-4,31-10,61-15,92c-2,15-4,29-6,44c0,5-1,9,0,14c2,6,11,3,15,6
			c1,2,0,6-1,6c-14,0-28-2-42-5c1-2,1-5,1-7c5,1,11,2,15-1c2-2,2-6,3-9c6-40,11-76,18-116c1-10,2-19,4-29c-4,9-8,18-13,27
			c-4,9-8,18-12,27c-1,1-2,3-3,4c-5,12-11,24-16,36c-1,1-2,3-3,4C532,467,525,487,516,507L516,507z"/>
		<path stroke="#E60012" stroke-width="18" stroke-miterlimit="10" d="M661,529c-13-1-24-8-33-18c-4-6-7-12-10-18c-4-8-5-16-6-25
			c-2-21,1-42,8-62c0-1,2-2,2-3c1-5,3-9,6-13c1-1,0-3,1-4c13-21,35-44,62-35c1,0,2,0,3,0c9,4,17,11,22,20c20,34,18,74,5,109
			c-2,3-3,7-4,10c-6,10-11,19-20,27c-1,1-2,0-3,1C685,526,673,530,661,529L661,529z M623,435c-5,32-1,82,39,86c25,3,42-20,48-42
			c0-1,2-2,2-3c10-35,16-74-7-107c-8-10-19-14-31-12c-8,2-15,6-21,11c-7,7-12,15-17,24c-1,2-1,5-3,7c-1,1-1,3-1,4c-1,1-2,2-2,3
			C627,416,625,425,623,435L623,435z"/>
		<path stroke="#E60012" stroke-width="18" stroke-miterlimit="10" d="M765,380c-2-5-2-12-7-14c-3-1-7,0-11-1c1-2,1-5,1-7
			c15,1,29,0,44,2c-1,2-1,5-1,7c-7-1-16-1-18,8c7,48,16,95,26,142c10-22,18-45,27-68c9-25,20-47,25-73c2-8-8-10-15-9c0-2,0-5,0-7
			c13,1,27-1,40-1c0,3,1,6-1,7c-3,2-7,0-10,1c-5,2-6,8-8,12c-19,53-38,104-59,156h-4c-7-18-8-36-12-55C775,446,770,413,765,380
			L765,380z"/>
		<path stroke="#E60012" stroke-width="18" stroke-miterlimit="10" d="M903,512c0,4-1,8,2,10c6,3,12,2,18,0c0,3,0,5,0,8
			c-17,0-34,4-51,1c0,0-1-5,0-5c5-3,12,1,17-3c4-3,4-6,5-10c3-47,6-93,7-140c1-10-12-6-19-7c1-2,1-5,1-7c16-1,32-2,48-3c0,3,0,5,0,8
			c-7,0-16-1-20,6C908,417,906,465,903,512L903,512z"/>
		<path stroke="#E60012" stroke-width="18" stroke-miterlimit="10" d="M955,381c0-7,1-16-6-19c-3-1-7,3-10,1c-1-2,0-5,1-8
			c31-2,61-7,92-10c4,15,9,30,10,45l-3,1c-5-14-9-31-24-36c-15,1-29,4-44,5c-5,4-7,9-7,15c-1,20-2,41-2,61c12-2,23-1,35-4
			c13-4,9-19,12-30c1-1,3-1,4-1c0,22,0,43-2,65c0,0-2,1-4,1c-1-9,3-20-5-26c-13-3-27,2-40,2c-3,21-2,43-2,64c-1,3-1,7,2,10
			c1,1,4,2,5,2c16-2,33-1,48-9c14-7,20-23,26-37c1-1,3-1,5-1c-6,15-9,31-16,46c-5,1-10,2-15,3c-28,3-55,6-83,8c0-2-1-6,0-6
			c7-3,18-2,18-12C952,468,954,424,955,381L955,381z"/>
	</g>
</g>
</svg>
