<?xml version="1.0" encoding="utf-8"?>
<!-- Generator: Adobe Illustrator 16.0.0, SVG Export Plug-In . SVG Version: 6.00 Build 0)  -->
<!DOCTYPE svg PUBLIC "-//W3C//DTD SVG 1.1//EN" "http://www.w3.org/Graphics/SVG/1.1/DTD/svg11.dtd">
<svg version="1.1" id="圖層_1" xmlns="http://www.w3.org/2000/svg" xmlns:xlink="http://www.w3.org/1999/xlink" x="0px" y="0px"
	 width="1133.86px" height="850.39px" viewBox="0 0 1133.86 850.39" enable-background="new 0 0 1133.86 850.39"
	 xml:space="preserve">
<g>
	<defs>
		<rect id="SVGID_1_" x="193.608" y="373.537" width="426" height="103.315"/>
	</defs>
	<clipPath id="SVGID_2_">
		<use xlink:href="#SVGID_1_"  overflow="visible"/>
	</clipPath>
	<g clip-path="url(#SVGID_2_)">
		<g>
			<g>
				<g>
					<path fill="#AA1F24" d="M266.864,427.873c-2.183-12.406-4.396-24.359-6.649-35.822c-0.055,12.228-0.11,24.456-0.166,36.683
						c-0.009,2.031-0.376,3.436-1.099,4.193c-0.723,0.757-1.677,0.91-2.863,0.475c-1.147-0.421-2.082-1.257-2.807-2.478
						c-0.725-1.224-1.088-2.799-1.088-4.744c0-13.284,0-26.567,0-39.851c0-2.197,0.491-3.665,1.478-4.428
						c0.985-0.761,2.317-1.148,3.993-1.14c0.907,0.005,1.814,0.011,2.721,0.016c1.637,0.009,2.824,0.198,3.561,0.576
						c0.737,0.377,1.279,1.055,1.627,2.036s0.74,2.581,1.176,4.814c2.019,10.194,4.012,20.752,5.985,31.651
						c2.171-10.005,4.367-20.371,6.582-31.072c0.479-2.346,0.902-4.051,1.269-5.1c0.367-1.047,0.923-1.774,1.667-2.177
						c0.744-0.403,1.935-0.604,3.572-0.596c0.907,0.004,1.814,0.008,2.722,0.013c1.676,0.007,3.001,0.485,3.975,1.451
						c0.974,0.965,1.441,2.833,1.405,5.59c-0.223,16.645-0.445,33.29-0.667,49.934c-0.032,2.412-0.423,4.13-1.171,5.138
						c-0.749,1.007-1.737,1.335-2.965,0.994c-1.151-0.32-2.088-1.18-2.813-2.553c-0.726-1.378-1.074-3.222-1.045-5.55
						c0.173-14.028,0.347-28.056,0.52-42.083c-2.471,12.801-4.921,25.191-7.343,37.136c-0.474,2.327-0.857,4.009-1.15,5.063
						c-0.293,1.053-0.823,1.934-1.588,2.629c-0.765,0.695-1.814,0.824-3.147,0.396c-1.004-0.323-1.851-0.893-2.541-1.694
						c-0.69-0.803-1.224-1.709-1.603-2.723c-0.379-1.011-0.675-2.085-0.888-3.229C267.306,430.281,267.087,429.098,266.864,427.873z
						"/>
					<path fill="#AA1F24" d="M322.14,379.872c4.498-0.002,8.339,1.468,11.528,4.507c3.188,3.037,5.581,7.405,7.175,13.092
						c1.595,5.685,2.351,12.381,2.266,20.011c-0.063,5.639-0.577,10.729-1.542,15.231c-0.966,4.503-2.382,8.318-4.248,11.416
						s-4.141,5.301-6.819,6.6s-5.73,1.601-9.15,0.929c-3.4-0.668-6.427-2.182-9.082-4.452c-2.656-2.271-4.855-5.126-6.601-8.524
						c-1.747-3.399-3.046-7.276-3.901-11.642s-1.25-8.951-1.182-13.816c0.069-4.982,0.609-9.497,1.622-13.609
						c1.013-4.11,2.447-7.616,4.303-10.538c1.855-2.92,4.097-5.189,6.723-6.784C315.856,380.699,318.826,379.872,322.14,379.872z
						 M334.17,416.689c0.065-5.241-0.394-9.823-1.373-13.706c-0.979-3.883-2.409-6.827-4.289-8.837
						c-1.881-2.009-4.053-3.03-6.52-3.105c-1.756-0.054-3.386,0.423-4.89,1.41c-1.504,0.988-2.807,2.441-3.909,4.352
						c-1.102,1.912-1.985,4.359-2.648,7.346c-0.664,2.988-1.021,6.353-1.074,10.124c-0.053,3.802,0.208,7.275,0.786,10.447
						c0.577,3.172,1.418,5.873,2.523,8.105c1.105,2.233,2.385,3.998,3.841,5.277c1.456,1.279,3.062,2.077,4.822,2.369
						c2.252,0.374,4.336-0.199,6.251-1.752c1.914-1.551,3.456-4.192,4.623-7.921C333.482,427.074,334.1,422.354,334.17,416.689z"/>
					<path fill="#AA1F24" d="M357.378,389.803c3.127,16.737,6.28,33.707,9.465,50.835c3.445-16.797,6.863-33.814,10.249-50.975
						c0.529-2.705,0.924-4.588,1.186-5.648c0.262-1.059,0.691-2.014,1.288-2.866c0.596-0.851,1.407-1.278,2.433-1.278
						c0.75,0,1.443,0.331,2.082,0.994c0.638,0.664,1.138,1.546,1.499,2.646c0.361,1.101,0.54,2.211,0.536,3.329
						c-0.003,0.769-0.065,1.598-0.188,2.488s-0.273,1.763-0.455,2.617c-0.182,0.855-0.363,1.735-0.545,2.641
						c-3.578,16.694-7.191,33.277-10.834,49.668c-0.391,1.884-0.782,3.669-1.172,5.356c-0.391,1.69-0.84,3.164-1.348,4.424
						s-1.181,2.273-2.016,3.034c-0.836,0.764-1.854,1.091-3.053,0.986c-1.2-0.105-2.212-0.604-3.034-1.487
						c-0.823-0.881-1.483-2.007-1.981-3.37c-0.498-1.364-0.93-2.899-1.294-4.605c-0.365-1.705-0.728-3.513-1.09-5.419
						c-3.335-16.479-6.641-32.764-9.924-48.772c-0.169-0.876-0.343-1.734-0.521-2.576c-0.179-0.841-0.327-1.748-0.445-2.721
						c-0.118-0.972-0.174-1.792-0.167-2.461c0.018-1.705,0.439-3.256,1.263-4.661c0.824-1.405,1.846-2.112,3.07-2.112
						c1.499,0,2.551,0.784,3.158,2.361C356.145,383.81,356.758,386.331,357.378,389.803z"/>
					<path fill="#AA1F24" d="M392.932,450.047c0.047-20.238,0.094-40.476,0.14-60.713c0.007-3.155,0.417-5.519,1.23-7.096
						c0.812-1.577,1.859-2.366,3.142-2.366c1.321,0,2.391,0.781,3.208,2.343c0.817,1.562,1.227,3.941,1.225,7.135
						c-0.01,20.273-0.02,40.547-0.029,60.821c-0.001,3.195-0.418,5.58-1.251,7.154c-0.833,1.574-1.922,2.351-3.265,2.329
						c-1.284-0.021-2.34-0.842-3.168-2.455C393.335,455.587,392.925,453.2,392.932,450.047z"/>
					<path fill="#AA1F24" d="M440.384,392.985c-6.614,0.096-13.229,0.166-19.845,0.209c0.021,6.294,0.043,12.589,0.064,18.883
						c6.115-0.097,12.229-0.247,18.339-0.451c1.349-0.045,2.359,0.444,3.032,1.467c0.673,1.023,1.016,2.391,1.029,4.105
						c0.013,1.717-0.303,3.13-0.951,4.245c-0.647,1.113-1.657,1.705-3.029,1.768c-6.123,0.279-12.25,0.484-18.379,0.616
						c0.024,7.291,0.049,14.582,0.074,21.873c6.916-0.222,13.828-0.582,20.73-1.082c1.397-0.101,2.454,0.377,3.17,1.432
						c0.717,1.058,1.083,2.506,1.099,4.354c0.015,1.78-0.328,3.257-1.029,4.436c-0.701,1.178-1.75,1.834-3.15,1.954
						c-8.067,0.692-16.149,1.16-24.236,1.403c-1.944,0.059-3.344-0.665-4.198-2.156c-0.855-1.492-1.284-3.924-1.289-7.291
						c-0.031-19.328-0.061-38.657-0.091-57.985c-0.003-2.245,0.182-4.079,0.554-5.5c0.373-1.42,0.958-2.455,1.756-3.105
						c0.798-0.648,1.818-0.973,3.061-0.974c7.735-0.004,15.47-0.012,23.204-0.022c1.401-0.002,2.445,0.537,3.135,1.615
						c0.689,1.078,1.041,2.488,1.055,4.235c0.014,1.782-0.314,3.215-0.988,4.305C442.826,392.407,441.788,392.964,440.384,392.985z"
						/>
					<path fill="#FDEDE7" d="M459.549,388.211c0.071,6.783,0.143,13.565,0.214,20.348c1.008-2.062,1.995-3.692,2.962-4.902
						c0.967-1.209,2.04-2.125,3.22-2.754c1.18-0.627,2.452-0.967,3.815-1.024c2.055-0.086,3.886,0.555,5.496,1.902
						c1.607,1.349,2.884,3.343,3.828,5.983c0.594,1.538,1.002,3.266,1.225,5.189c0.223,1.926,0.351,4.151,0.384,6.684
						c0.109,8.384,0.219,16.767,0.328,25.149c0.034,2.627-0.312,4.677-1.037,6.158c-0.726,1.479-1.703,2.332-2.933,2.544
						c-2.678,0.464-4.052-2.037-4.118-7.462c-0.092-7.531-0.184-15.062-0.276-22.592c-0.052-4.279-0.479-7.536-1.278-9.79
						c-0.8-2.252-2.278-3.317-4.435-3.187c-1.445,0.087-2.739,0.851-3.881,2.303c-1.144,1.452-1.991,3.402-2.54,5.85
						c-0.415,2.071-0.595,5.722-0.54,10.947c0.063,6.046,0.127,12.092,0.19,18.138c0.029,2.712-0.313,4.825-1.025,6.342
						c-0.713,1.517-1.717,2.361-3.013,2.52c-2.693,0.33-4.067-2.342-4.119-7.976c-0.185-20.088-0.37-40.175-0.555-60.263
						c-0.026-2.816,0.305-4.932,0.993-6.34c0.687-1.407,1.662-2.109,2.924-2.108c1.281,0,2.289,0.708,3.025,2.114
						C459.138,383.393,459.521,385.465,459.549,388.211z"/>
					<path fill="#FDEDE7" d="M509.964,439.705c-0.007-0.513-0.014-1.026-0.021-1.539c-0.936,2.029-1.924,3.794-2.966,5.285
						c-1.042,1.49-2.188,2.695-3.435,3.604c-1.249,0.908-2.68,1.554-4.293,1.919c-1.947,0.442-3.705,0.199-5.271-0.749
						c-1.565-0.945-2.789-2.473-3.668-4.568c-1.044-2.534-1.601-6.381-1.671-11.501c-0.116-8.494-0.231-16.989-0.347-25.483
						c-0.035-2.575,0.303-4.524,1.017-5.835c0.712-1.313,1.67-1.995,2.874-2.063c1.223-0.069,2.218,0.509,2.985,1.721
						c0.766,1.214,1.167,3.055,1.202,5.537c0.094,6.698,0.187,13.396,0.281,20.093c0.041,2.912,0.232,5.332,0.575,7.253
						c0.342,1.921,0.931,3.362,1.763,4.318c0.832,0.958,1.947,1.291,3.344,1.009c1.357-0.273,2.624-1.153,3.806-2.615
						c1.181-1.461,2.032-3.215,2.554-5.261c0.428-1.793,0.603-5.559,0.523-11.308c-0.067-4.87-0.134-9.74-0.201-14.61
						c-0.033-2.377,0.317-4.2,1.049-5.453c0.731-1.254,1.697-1.915,2.897-1.998c1.201-0.084,2.173,0.43,2.915,1.528
						c0.744,1.099,1.13,2.806,1.161,5.135c0.147,11.238,0.295,22.477,0.442,33.715c0.029,2.216-0.296,3.966-0.975,5.263
						c-0.679,1.296-1.564,2.097-2.659,2.387c-1.095,0.289-2.008-0.063-2.739-1.066C510.374,443.421,509.993,441.843,509.964,439.705
						z"/>
					<path fill="#FDEDE7" d="M532.285,386.059c0.057,5.514,0.114,11.028,0.17,16.542c1.486-2.292,3.009-4.045,4.567-5.292
						s3.496-1.951,5.808-2.159c2.664-0.24,5.004,0.344,7.014,1.664c2.009,1.323,3.564,3.317,4.666,5.978
						c1.102,2.665,1.648,5.87,1.648,9.716c0,2.84-0.304,5.517-0.908,8.079c-0.604,2.561-1.48,4.917-2.627,7.079
						c-1.146,2.161-2.536,4.039-4.172,5.609c-1.635,1.568-3.441,2.72-5.422,3.396c-1.212,0.413-2.355,0.608-3.428,0.579
						c-1.073-0.031-1.989-0.247-2.749-0.646c-0.759-0.397-1.41-0.86-1.948-1.384c-0.54-0.521-1.251-1.339-2.139-2.474
						c0.004,0.357,0.007,0.714,0.011,1.071c0.021,2.036-0.322,3.68-1.027,4.948c-0.706,1.267-1.61,2.078-2.716,2.414
						c-1.124,0.342-2.028,0.075-2.711-0.811s-1.039-2.393-1.064-4.508c-0.196-16.358-0.392-32.717-0.588-49.075
						c-0.027-2.278,0.282-4.008,0.929-5.175c0.647-1.167,1.563-1.742,2.746-1.742c1.243,0,2.206,0.544,2.887,1.615
						C531.914,382.558,532.264,384.076,532.285,386.059z M532.996,418.154c0.044,4.304,0.804,7.456,2.271,9.365
						c1.466,1.915,3.37,2.503,5.708,1.827c1.99-0.574,3.694-2.208,5.12-4.8c1.426-2.598,2.132-5.873,2.114-9.906
						c-0.012-2.61-0.323-4.793-0.935-6.582c-0.612-1.789-1.478-3.125-2.595-4.012c-1.119-0.886-2.421-1.246-3.906-1.048
						c-1.524,0.203-2.879,0.919-4.061,2.183c-1.182,1.264-2.104,3.004-2.767,5.228C533.283,412.631,532.966,415.224,532.996,418.154
						z"/>
				</g>
			</g>
			<g opacity="0.6">
				<g>
					<g>
						<g>
							<g>
								<path fill="#8F4F9C" d="M637.355,380.58c0.611-0.479,0.117-0.604,0.152-0.735
									C636.598,380.751,637.453,380.64,637.355,380.58z"/>
								<polygon fill="#8F4F9C" points="627.75,389.641 627.822,389.354 626.584,390.977 								"/>
								<path fill="#8F4F9C" d="M618.068,397.269c1.361-0.148,3.484-2.831,5.389-3.976l0.387-0.094l0.436-1.06
									C622.213,393.846,619.686,396.274,618.068,397.269z"/>
								<path fill="#8F4F9C" d="M611.895,400.039c0.492-0.021-1.002,1.039,1.285-0.844c-0.135,0.067-0.18,0.079-0.262,0.114
									C612.705,399.47,612.41,399.686,611.895,400.039z"/>
								<path fill="#8F4F9C" d="M612.918,399.309C613.939,398.503,612.098,399.634,612.918,399.309L612.918,399.309z"/>
								<path fill="#8F4F9C" d="M608.172,402.988l1.232-1.212c-0.385,0.08-1.637,0.951-1.25,0.52
									C606.818,403.444,607.207,403.362,608.172,402.988z"/>
								<path fill="#8F4F9C" d="M607.17,404.369l0.654-0.61C607.658,403.795,607.455,403.916,607.17,404.369z"/>
								<path fill="#8F4F9C" d="M609.211,402.466l-1.387,1.293c0.268-0.054,0.426,0.117,0.65-0.576
									C608.475,403.444,608.654,403.061,609.211,402.466z"/>
								<path fill="#8F4F9C" d="M610.135,401.923c0.867-0.444,1.93-1.101,0.689,0.115
									C613.41,400.019,612.719,399.904,610.135,401.923z"/>
								<path fill="#8F4F9C" d="M618.016,398.241l1.148-0.621l0.738-0.871C619.533,397.184,617.816,398.112,618.016,398.241z"/>
								<path fill="#8F4F9C" d="M599.322,408.949c0,0.185,0.707,0.003,0.924,0.089l0.939-0.861
									C600.59,408.462,599.523,409.084,599.322,408.949z"/>
								<path fill="#8F4F9C" d="M600.246,409.039l-1.406,1.29C600.248,409.391,600.432,409.114,600.246,409.039z"/>
								<polygon fill="#8F4F9C" points="607.391,405.19 609.578,402.906 606.91,405.551 								"/>
								<polygon fill="#8F4F9C" points="593.377,413.039 594.059,412.14 592.789,413.663 								"/>
								<path fill="#8F4F9C" d="M589.473,415.811c0.5-0.678-1.182,0.183-0.582-0.424c-1.061,0.746-1.854,1.555-2.568,2.283
									C587.145,416.991,588.111,416.406,589.473,415.811z"/>
								<path fill="#8F4F9C" d="M585.092,418.854c0.408-0.346,0.801-0.749,1.23-1.183
									C585.885,418.032,585.473,418.414,585.092,418.854z"/>
								<path fill="#8F4F9C" d="M596.146,412.101c-0.174,0.007-0.541-0.03-1.471,0.49l0.854-0.071
									C595.717,412.392,595.93,412.247,596.146,412.101z"/>
								<path fill="#8F4F9C" d="M595.559,412.516l-0.029,0.003c-0.672,0.45-1.137,0.762-1.336,0.895
									C594.365,413.301,594.777,413.03,595.559,412.516z"/>
								<path fill="#8F4F9C" d="M596.301,411.995c-0.057,0.039-0.1,0.067-0.154,0.105
									C596.229,412.094,596.271,412.081,596.301,411.995z"/>
								<path fill="#8F4F9C" d="M603.154,407.818c-0.75,0.863-2.502,2.412-0.457,1.402
									C603.172,408.509,602.012,409.102,603.154,407.818z"/>
								<path fill="#8F4F9C" d="M597.367,411.908l1.711-1.065c-0.098-0.07-0.49,0.002-0.105-0.409L597.367,411.908z"/>
								<polygon fill="#8F4F9C" points="596.633,412.58 597.367,411.908 596.732,412.303 								"/>
								<path fill="#8F4F9C" d="M588.199,417.325c-0.625,0.625-1.414,1.153-2.299,1.759c1.012-0.552,2.035-1.159,2.982-1.771
									C588.943,417.115,589.227,416.646,588.199,417.325z"/>
								<path fill="#8F4F9C" d="M591.814,415.047c-0.047,0.041-0.104,0.092-0.146,0.13
									C591.787,415.14,591.871,415.095,591.814,415.047z"/>
								<path fill="#8F4F9C" d="M576.994,424.747c0.064-0.007,0.123-0.014,0.188-0.021c-0.002-0.028-0.008-0.053-0.006-0.083
									L576.994,424.747z"/>
								<path fill="#8F4F9C" d="M589.09,417.274c0.773-0.396,1.148-0.766,1.477-1.161c-0.502,0.412-1.068,0.797-1.684,1.2
									C588.857,417.402,588.867,417.442,589.09,417.274z"/>
								<path fill="#8F4F9C" d="M582.729,420.615c0.426-0.168,0.895-0.381,1.383-0.612
									C583.67,420.127,582.803,420.436,582.729,420.615z"/>
								<path fill="#8F4F9C" d="M591.363,415.245c0.031-0.03,0.061-0.057,0.096-0.089
									C591.174,415.241,591.229,415.258,591.363,415.245z"/>
								<path fill="#8F4F9C" d="M591.363,415.245c-0.332,0.304-0.561,0.591-0.797,0.869c0.414-0.328,0.789-0.643,1.102-0.936
									C591.563,415.213,591.449,415.236,591.363,415.245z"/>
								<path fill="#8F4F9C" d="M575.66,428.73c-0.07-0.419,1.699-1.896,3.617-2.542c1.496-1.272-0.266-1.691-2.096-1.462
									c0.039,0.178,0.123,0.313-1.465,1.528c0.709-0.17,4.059-1.822,2.803-0.66c-2.162,1.522-1.932,0.985-3.141,1.46
									c1.193-0.135-2.518,2.331-1.656,2.662l1.865-1.404C575.684,428.387,575.053,428.972,575.66,428.73z"/>
								<path fill="#8F4F9C" d="M580.412,422.761l0.66-0.484c-0.82,0.446-1.465,0.673-2.658,1.075
									c-1.057,0.869-1.229,1.129-1.238,1.292c0,0,0.881-0.486,1.734-1.017c0.852-0.534,1.705-1.067,1.705-1.067L580.412,422.761z"
									/>
								<path fill="#8F4F9C" d="M584.154,420.287c-0.303,0.708-1.857,1.928-0.594,1.669c2.004-1.328,1.221-1.216,2.324-2.15
									c-3.197,2.189,0.805-0.804-1.68,0.507c0.6-0.474,1.162-0.863,1.695-1.228c-0.615,0.333-1.215,0.643-1.789,0.919
									c0.035-0.01,0.061-0.017,0.09-0.025l0.014-0.011v0.008c0.17-0.045,0.234-0.047,0.059,0.028
									c-0.008,0.012-0.045,0.039-0.063,0.051c0.01,0.065-0.021,0.147-0.059,0.231c-0.99,0.533-0.209,0.001,0.059-0.231
									c0-0.024,0.014-0.058,0.004-0.079l-0.014,0.003l-3.129,2.299C581.793,421.882,582.65,421.315,584.154,420.287z"/>
								<path fill="#8F4F9C" d="M601.533,411.168c-0.121,0.038-0.135,0.01-0.16-0.011
									C601.195,411.344,601.139,411.428,601.533,411.168z"/>
								<path fill="#8F4F9C" d="M600.064,411.867c0.199-0.21,0.293-0.485,1.076-0.973c0.73-0.348,0.115,0.171,0.232,0.263
									c0.391-0.409,1.418-1.356-0.135-0.538l-0.191,0.205c-1.375,0.771-3.338,1.475-3.146,1.27
									C598.498,412.152,598.988,412.149,600.064,411.867z"/>
								<path fill="#8F4F9C" d="M592.123,416.337c0,0-0.635,0.504-1.271,1.009c-0.648,0.486-1.297,0.972-1.297,0.972
									s0.396-0.146,0.795-0.292c0.4-0.142,0.793-0.299,0.793-0.299l-0.193-0.139C592.514,416.613,592.031,416.611,592.123,416.337
									z"/>
								<polygon fill="#8F4F9C" points="576.566,424.752 576.695,424.146 575.43,425.645 								"/>
								<polygon fill="#8F4F9C" points="572.994,426.938 572.926,426.518 572.098,427.287 								"/>
								<path fill="#8F4F9C" d="M343.479,463.188l-0.962-0.038C342.969,463.186,343.262,463.193,343.479,463.188z"/>
								<path fill="#8F4F9C" d="M350.314,464.275l0.197-0.168C350.178,464.166,350.036,464.225,350.314,464.275z"/>
								<path fill="#8F4F9C" d="M477.279,462.092c-1.42-0.159-3.02-0.498-2.791-0.082l0.48,0.366
									C475.909,462.156,476.644,462.094,477.279,462.092z"/>
								<path fill="#8F4F9C" d="M406.907,468.049c0.13,0.048,0.266,0.098,0.4,0.148c0.344-0.136,0.667-0.264,0.958-0.377
									C407.855,467.889,407.392,467.967,406.907,468.049z"/>
								<path fill="#8F4F9C" d="M405.833,469.799l-1.82-0.396C404.419,469.525,405.005,469.656,405.833,469.799z"/>
								<path fill="#8F4F9C" d="M306.172,457.359L305,457.604C306.716,457.9,306,457.55,306.172,457.359z"/>
								<path fill="#8F4F9C" d="M534.846,446.339c-1.16,0.303-2.047,0.626-2.829,0.905
									C533.435,446.942,534.632,446.815,534.846,446.339z"/>
								<path fill="#8F4F9C" d="M346.875,459.061c-0.588-0.013-0.847,0.036-0.845,0.135
									C346.634,459.215,346.981,459.186,346.875,459.061z"/>
								<path fill="#8F4F9C" d="M528.802,448.428c0.211-0.031,0.412-0.082,0.625-0.121c0.788-0.367,1.586-0.723,2.59-1.063
									C530.958,447.436,529.786,447.745,528.802,448.428z"/>
								<path fill="#8F4F9C" d="M170.976,443.621c-0.1-0.014-0.218-0.018-0.309-0.036
									C170.64,443.645,170.777,443.642,170.976,443.621z"/>
								<path fill="#8F4F9C" d="M130.965,444.296c0.383-0.103,1.016-0.228,1.612-0.351
									C132.281,443.974,131.793,444.072,130.965,444.296z"/>
								<path fill="#8F4F9C" d="M558.23,435.02C558.997,434.572,558.332,434.91,558.23,435.02L558.23,435.02z"/>
								<path fill="#8F4F9C" d="M562.843,434.478c-0.144,0.134-0.24,0.257-0.212,0.354
									C562.646,434.705,562.723,434.588,562.843,434.478z"/>
								<path fill="#8F4F9C" d="M521.395,454.031c-0.024,0.008-0.045,0.016-0.073,0.025
									C521.599,454.045,521.551,454.045,521.395,454.031z"/>
								<path fill="#8F4F9C" d="M559.497,434.56c-0.318,0.111-0.677,0.255-1.059,0.425
									C558.615,434.928,558.938,434.801,559.497,434.56z"/>
								<path fill="#8F4F9C" d="M559.242,434.464c0.277-0.131,0.495-0.233,0.702-0.331
									C560.008,434.016,559.9,434.022,559.242,434.464z"/>
								<path fill="#8F4F9C" d="M557.154,435.627c0.443-0.246,0.869-0.453,1.284-0.643c-0.167,0.057-0.242,0.07-0.208,0.035
									C558.003,435.147,557.684,435.328,557.154,435.627z"/>
								<path fill="#8F4F9C" d="M243.787,445.945c-0.057-0.021-0.122-0.043-0.185-0.066
									C242.686,445.953,243.082,445.967,243.787,445.945z"/>
								<path fill="#8F4F9C" d="M454.704,469.307c0.041-0.011,0.064-0.018,0.101-0.027c-0.042-0.002-0.096-0.004-0.134-0.007
									L454.704,469.307z"/>
								<path fill="#8F4F9C" d="M451.5,469.82c1.337-0.62,2.121-0.6,3.17-0.548l-1.161-1.185L451.5,469.82z"/>
								<path fill="#8F4F9C" d="M327.114,460.633l2.163,0.764c-2.795,0.176-4.705-0.374-2.704,0.523
									c0.537-1.274,8.692,1.311,9.224,0.02l1.424,0.524c-0.419-0.083-0.5-0.015-0.914-0.097c2.756,1.113,2.28-0.611,5.938,0.158
									c1.269,0.305,2.136,0.641,1.234,0.662l2.917,0.119c0.83,0.156,0.589,0.357-0.236,0.201l4.39,0.564l-0.039,0.035
									c0.656-0.119,2.12-0.236,2.831-0.273c1.083,0.357-0.579,0.061-0.319,0.271l2.47,0.032c0.937,0.493-1.121,0.535-2.788,0.238
									c2.069,1.669,2.058-0.027,6.838,1.448l-2.317-0.152c1.367,0.987,3.203,0.937,5.735,1.77
									c-0.585-0.333-5.034-1.903-2.349-1.881c0.729,0.202,1.703,0.384,3.162,0.306c-0.051,0.479,1.354,0.551,3.097,0.758
									l-0.201,0.619c1.904,0.075,1.8-0.287,2.944-0.432c2.091,0.316,2.467,0.861,2.912,1.335c3.354,0.509-2.229-1.069,1.768-0.708
									c2.766,0.596,4.768,0.535,8.159,0.502c1.939,0.424-0.383,0.354,0.302,0.608l1.79-0.326c0.425,0.057,0.271,0.198,0.194,0.27
									c1.484-0.046,0.184-0.62,2.501-0.561c0.683-0.649,4.644,1.43,7.568,0.876c0.689,0.24-0.371,0.361-0.175,0.627
									c3.96-0.195,3.396-0.145,6.661-0.626l2.718,0.595c-1.987-0.617,0.622-0.992,2.895-1.354c-0.702-0.254-1.3-0.499-1.703-0.622
									c0,0,0.9-0.02,1.802-0.078c0.901-0.05,1.801-0.1,1.801-0.1c0.428,0.122,0.058,0.327-0.543,0.571
									c0.247-0.048,0.48-0.092,0.665-0.127c1.273,0.287,0.593,0.629-0.345,0.949c-0.43-0.15-0.859-0.3-1.277-0.445
									c-0.907,0.357-1.762,0.741-1.596,1.122c0.237-0.055,0.692-0.103,1.189-0.118c-0.238,0.097-0.392,0.185-0.287,0.253
									c0.119,0.072,0.502-0.054,1.1-0.193l0.787,0.745l0.212-0.275l4.707,0.635c3.407-0.565,6.364-1.649,11.703-1.857
									c-1.326,0.516-0.286,0.854-0.358,1.475c-1.461-0.676-4.156,0.221-6.939,0.049c1.45,0.089,1.126,0.38,0.755,0.478
									l4.971-0.527c-0.115,0.493,1.053,0.423,2.35,0.591c-0.981-0.983,3.692-0.736,5.703-1.082
									c0.131,0.334-0.347,0.687-2.81,0.652c2.729,0.702,3.489-1.242,6.162-0.652c-0.6,0.02-0.925-0.025-1.158,0.149
									c1.395-0.325,4.828-0.153,4.032,0.155l-0.6,0.018c0.998,0.006,2.257,0.016,3.59-0.042c1.333-0.086,2.743-0.198,4.043-0.335
									c2.603-0.273,4.771-0.644,5.039-1.086c0.047,0.107-0.455,1.055-0.686,1.24c0,0,1.727-0.818,3.454-1.638
									c0.857-0.409,1.715-0.817,2.358-1.125c0.638-0.33,1.064-0.55,1.064-0.55c-0.565,0.779,1.981,2.305-1.285,3.002
									c0.958,0.061,2.14,0.021,4.114-0.43c-0.657-0.036-1.702-0.886-0.828-1.043c2.491,0.561,1.715,0.26,4.77,0.643
									c-0.984-0.057-0.026-1.307,1.5-1.428c-0.22,0.195,0.25,1.111-0.296,1.287l3.674-1.51c-0.923,0.299-0.056,0.964,0.837,1.191
									c-0.212-0.1,0.615-0.146,1.612-0.276c0.997-0.132,2.171-0.275,2.668-0.407l-1.64-0.016c4.301-0.477,3.995-2.201,8.217-2.779
									c-0.471,0.307-1.039,1.604,1.142,1.418c0.446-0.363,1.429-1.197,2.737-2.1c1.303-0.951,2.934-1.953,4.729-2.541l0.77,0.182
									l2.747-0.937c-1.57,1.186-6.176,4.021-8.802,5.208c1.643,0,0.512,0.311,2.89-0.184c0.897,0.135-1.214,0.723-1.913,0.881
									l5.591-0.922c-0.376-0.611,4.108-1.516,3.778-2.021l-5.877,1.896c-0.363-0.611,3.107-2.572,7.028-3.241
									c1.052,0.061-0.487,1.318-0.36,1.521c0.464-0.318,3.624-1.182,4.006-1.16c0,0-0.391,0.192-0.781,0.385
									c-0.389,0.2-0.787,0.367-0.787,0.367c2.23-0.27,3.319-1.755,6.066-1.785c0.903-0.186,2.893,0.156,2.947-0.269
									c-1.661-0.368-2.527-2.597-1.713-3.398c0.314-0.046,4.846-0.437,5.945-0.409c0.804,0.064,0.363,0.577-0.112,1.089
									c-0.472,0.519-0.997,0.972-0.298,1.069c0.008-0.178,0.746-0.652,1.06-0.824c0.968-0.137-0.226,0.666,1.763-0.039
									c0.143-0.758,4.105-1.215,0.787-0.848c1.906-0.796,2.127-0.514,4.426-1.26c-0.863-0.192,1.61-2.07,3.499-2.859
									c-0.062,0.196,0.454,0.284,0.695,0.301c3.958-1.391,6.181-1.879,9.862-3.229c0.398,0.029,2.249-0.439,1.6,0.113
									c0.49-0.299,0.888-0.703,1.991-1.201c2.378-0.373-2.451,1.144-0.544,1.1c-0.005-0.428,2.683-1.735,4.172-2.639
									c-0.728-0.363-3.698,1.467-5.211,2.342c-0.303-0.75,2.117-2.77,5.708-4.715c2.893-1.459,1.509-0.049,1.978-0.379
									c2.83-1.125,3.878-1.955,4.785-2.77c0.919-0.789,1.74-1.467,4.139-2.289c2.036-0.388,0.548,0.923,1.116,1.079
									c-2.295,1.336-3.803,1.46-5.404,2.259l2.093-0.73c-0.687,0.518-2.206,1.445-3.158,1.676
									c0.879-0.101,3.196-1.236,5.873-2.498c1.339-0.629,2.763-1.298,4.119-1.936c1.371-0.607,2.672-1.186,3.754-1.666
									c0.655-0.559,1.84-1.41,1.138-1.276l-1.276,0.774c-1.402,0.266,2.187-1.861,0.437-1.146
									c1.614-1.219,3.347-2.699,5.929-3.814l0.761,0.287c-0.141-0.129-1.79,0.551-2.394,1.09c0.895-0.793,4.191-1.319,4.925-2.631
									l-1.938,0.564c1.631-1.18,3.394-3.059,5.63-4.143c-1.275,0.053-0.457,0.353-2.326,0.639c0.877-0.008-0.49,0.793-1.754,1.539
									c-1.277,0.723-2.478,1.346-1.169,1.174c-1.99,0.141-2.922,1.182-5.329,1.685c0.159,0.144,0.918-0.056-0.956,0.843
									c-0.055,0.096-0.214,0.268-0.316,0.373c-0.06,0.024-0.08,0.033-0.131,0.054c0.04-0.013,0.071-0.021,0.111-0.033
									c-0.064,0.069-0.068,0.079,0.042-0.013c0.477-0.158,0.88-0.254,1.076-0.232c-0.688,0.9-3.609,2.461-4.485,3.207
									c-1.142,0.482,0.354-0.442-0.343-0.324l-1.341,1.052c-0.354-0.327-3.282,0.759-0.788-0.739l-2.359,1.118
									c-1.494,0.442-3.436,1.271-4.528,2.009c-1.147,0.447-2.59,1.805-1.771,1.02c0,0-0.224,0.127-0.558,0.317
									c-0.332,0.198-0.784,0.438-1.243,0.665c-0.913,0.465-1.826,0.93-1.826,0.93l-0.08-0.088
									c-1.869,0.764-3.707,1.75-5.653,2.678c-0.973,0.465-1.972,0.914-3.012,1.314c-1.049,0.376-2.158,0.652-3.311,0.867
									c-1.234,0.574-2.506,1.19-4.685,1.856l-0.547-0.213c-0.795,0.365-2.056,0.726-3.187,1.075
									c-1.126,0.364-2.164,0.596-2.452,0.916c-2.122-0.451-8.125,2.318-11.124,2.99l0.025,0.518
									c-2.053,0.493-3.976,1.132-6.469,1.978l0.266,0.395c-2.111,0.907-5.703,1.196-9.217,1.872
									c0.203-0.215,1.102-0.351,1.754-0.377c-2.205-0.072-4.371,0.553-6.492,1.203c-1.061,0.324-2.109,0.656-3.139,0.909
									c-0.516,0.124-1.023,0.237-1.529,0.306c-0.509,0.051-1.012,0.073-1.507,0.055c-0.93,0.305-1.632,0.354-2.321,0.344
									c0.089-0.014,0.168-0.034,0.233-0.059c-0.099,0.014-0.244,0.033-0.394,0.054c-0.435-0.013-0.883-0.036-1.365-0.036
									c0.417,0.048,0.814,0.078,1.154,0.069c-0.736,0.12-1.846,0.344-2.927,0.62l-0.538-0.405
									c-0.088,0.019-0.159,0.032-0.251,0.052c-1.101-0.014-0.833,0.355-0.206,0.628c-0.542,0.161-1.035,0.332-1.412,0.507
									c-0.981-0.643-2.848,0.704-4.151,0.041c-0.694,0.479-5.516,0.875-6.018,1.782c-0.049-0.106-0.381-0.125,0.216-0.193
									c-1.246,0.03-2.487,0.062-3.572,0.415l-0.581-0.556l-2.622,1.099c-1.67-0.195-2.366-0.391-0.778-0.986
									c-3.875,0.998-3.169,0.473-6.472,1.397l0.138-0.405c-1.195,0.086-3.082,0.729-3.823,0.445
									c-1.362-0.32-4.669-0.049-8.519-0.058c-3.846,0.054-8.22,0.122-11.662-0.161c1.334,1.177-3.196-0.545-3.473,0.342
									c-0.398-0.281-1.354-0.449-0.239-0.674c-3.514,0.202-5.256-0.465-7.7,0.172c-0.392-0.293,0.764-0.373,0.412-0.551
									c-0.283,0.047-1.122,0.194-1.48,0.016c-0.351-0.179,0.521-0.211,1.079-0.309c-3.577-0.098-3.976,0.736-4.272,1.523
									c-1.804-0.457-2.712-0.418-4.055,0.021c-0.62-0.301-1.659-0.641,0.574-0.592c-1.254-0.119-7.63-0.871-7.804-0.241
									c-0.381-0.188-1.75-0.153-2.084-0.118c-2.808-0.277-3.051-0.355-5.816-0.531l0.756,0.17
									c-1.157,0.67-2.313-0.012-4.545-0.135l0.071-0.072c-5.041-1.084-2.23,0.036-7.19-1.119l0.221,0.505
									c-0.586,0.997-4.386-1.104-7.342-1.071l1.019,0.399c-1.637,0.151-4.277-1.917-5.85-2.265
									c-0.336-0.137,0.566-0.066,1.06-0.07c-4.091-1.165-0.621,0.551-3.75,0.275c-0.528-0.414,0.853-0.754-1.23-1.1
									c-1.002-0.405-6.219,0.27-8.977-0.814c0.59,0.352,1.177,0.701-0.295,0.684c-2.228-0.232-5.83-1.855-7.949-1.368
									c-0.27-0.114-0.366-0.199-0.367-0.265c-1.721-0.058-5.543-0.513-6.632-0.238c-1.292-1.895-10.627-0.93-10.337-2.443
									l-5.202-0.803l0.162-0.131c-3.299-0.662-4.534-0.507-5.762-0.348c-0.749-0.236-0.165-0.279-0.088-0.348
									c-4.793-1.145-5.285-1.16-9.479-1.119l-0.337-0.563c-1.151,0.092-6.872-1.99-11.729-2.24
									c0.056-0.047,0.171-0.125,0.561-0.129c-5.445-0.362-12.593-3.543-14.854-2.098l-3.611-0.141
									c4.554,0.887-0.809,0.661,1.024,1.266c-1.815-0.19-4.563-1.299-2.337-1.029l0.332,0.146c0.964-0.795-5.633-1.264-5.41-1.869
									c-9.026-1.375-17.758-3.211-26.255-4.338l0.884,0.855l-2.954-0.436c-0.758-0.256-0.972-0.709,1.137-0.396
									c-1.058-0.572-3.593-0.088-3.67,0.059c-4.109-0.784,1.722-0.655,0.453-0.823l-1.734-0.15l0.379,0.131
									c-1.436,0.131-1.597,0.432-4.136,0.095c-1.593-0.336-0.775-0.546-1.406-0.649c0.009-0.049-0.201-0.105-0.971-0.13
									l-3.743-0.442l1.439,0.727c-1.69,0.115-3.518-0.387-1.857,0.439c-2.428-1.322-13.95-1.631-15.488-2.035
									c-2.364,0.279-4.664,0.132-7.515-0.092c0.704,0.163,1.091,0.838-1.361,0.609c0.966-1.309-4.481-0.748-6.443-1.785
									c0.881,0.352-0.875,0.326-2.503,0.34c-1.629,0.021-3.132,0.137-1.743,0.598c-2.056-0.131-0.115-0.502-1.673-0.834
									c-2.458,0.248-5.156,0.086-8.006-0.005c-2.849-0.07-5.851-0.208-8.883-0.037c-0.088,0.181,0.935,0.399-0.355,0.725
									l-3.237-0.724c-1.196,0.145-1.052,1.067-3.271,0.564c0.317,0.133,0.79,0.333-0.009,0.428
									c-5.954-0.072-12.008,0.604-18.045,1.456c-3.029,0.348-6.038,0.881-9.066,1.251c-1.511,0.202-3.036,0.314-4.547,0.503
									c-1.513,0.181-3.03,0.323-4.556,0.417c1.676,0.02,0.608,0.264-0.617,0.516c0.814-0.076,0.067,0.43,0.271,0.633
									c0,0-1.273,0.081-2.547,0.162c-1.28,0.061-2.543,0.217-2.543,0.218c-0.751,0.859-5.271,1.306-5.634,2.043l1.529-0.483
									c-1.885,1.219,3.278,0.923,3.183,1.931c2.106-1.438,6.325-0.082,9.875-2.019c0.873,0.028-0.657,0.443-0.168,0.574
									c0.887-0.571,2.023-0.953,4.226-1.081l-0.228,0.138c3.033-0.521,5.219-0.784,7.501-1.016
									c2.289-0.188,4.685-0.268,8.125-0.546l-0.559-0.411c1.483-0.109,1.808-0.002,2.511,0.041
									c1.623-0.906-4.149,0.436-2.689-0.525c0.517,0.182,1.425,0.197,2.52,0.133c1.099-0.029,2.385-0.126,3.652-0.22
									c2.534-0.187,4.991-0.352,5.689,0.141c2.281-0.116-0.705-0.519,1.578-0.625l0.623,0.267l0.555-0.41
									c1.502-0.01,2.276,0.324,2.343,0.572c-0.364-0.012-1.027,0.12-1.415,0.16c1.954,0.258,5.458-0.391,6.13-0.297l-2.198-0.082
									c1.552-0.164,3.197-0.221,4.882-0.257c1.685-0.034,3.41-0.07,5.128-0.106c3.437-0.057,6.849-0.015,9.873-0.303l-0.454-0.229
									c4.623-0.322,3.686,0.36,8.753,0.338l-0.186,0.046c1.022-0.18,2.382-0.265,3.766-0.14c-1.29,0.184,2.376,0.653,0.686,0.841
									c5.017-0.141,2.487-0.198,5.843-0.827l0.736,0.416c1.149-0.271,1.255-0.43,3.791-0.32c-2.096,0.147,1.568,0.695-0.784,0.925
									c5.223,1.243,7.937-0.185,10.25,1.264c2.529-0.774-4.522-1.032-3.142-1.104c-1.111-0.441,2.079-0.578,3.731-0.297
									c1.691,0.201,2.746,1.584,6.99,2.022c-0.422-0.054-0.459,0.019-0.879-0.034c1.558,0.446,3.15,0.016,5.048,0.668
									c1.165-0.488,2.523,0.334,2.934-0.414l-3.916-0.279c2.228,0.07,4.42-0.652,7.997,0.291
									c-0.304,0.121-1.411,0.186-2.168,0.203c1.032,0.373,2.064,0.118,3.135,0.502c-0.416,0.736-4.747-0.457-7.185-0.117
									c1.099,0.467,4.539-0.041,3.246,0.67c1.843-0.868,4.153,0.688,7.13,0.24l-0.253,0.445c0.464-0.014,1.435-0.111,2.269,0.013
									l-1.596,0.408c2.394-0.224,4.407,1.076,6.668,1.114c-4.655-0.662-0.963-0.717-2.884-1.347
									c5.836,0.214,3.128,1.694,9.583,2.433c-0.878-0.076-3.222-0.772-1.829-0.791c1.209,0.277,2.795,0.716,3.508,1.076
									c4.269,0.564-0.579-0.584,1.277-0.59c1.36,0.797,2.125,0.092,4.021,0.2l-0.063,0.479c4.799,1.077,1.445-0.788,5.75,0.29
									l-1.952,0.359l2.302,0.201l-0.558,0.465c2.54,0.004,3.294,0.231,5.692,0.783c-0.508-0.43,0.461-0.81,2.609-0.461
									c1.416,0.531-0.896,0.313,2.157,0.762c-0.737,0.181-1.552,0.427-2.801-0.236c-0.162,0.133-0.728,0.185-0.893,0.314
									c1.521,0.592,3.946,0.744,5.048,0.927c-0.421-0.09-0.923-0.201-1.171-0.313l4.521,0.089c0.664,0.3,0.088,0.347-0.481,0.394
									c0.901,0.102,1.557-0.009,2.877,0.178c-0.407,0.327-0.394,0.74-2.283,0.601l4.273,0.298
									c0.251,0.217,2.076,0.834,1.505,0.883c2.288,0.627,5.842,0.24,8.878,1.079c0.173-0.048,0.508-0.063,1.174-0.003
									c2.886,0.594,5.377,1.513,8.911,1.58l1.833,1.031c2.723,0.311-2.493-1.33,2.041-0.814c3.219,0.321,1.085,0.793,2.169,1.177
									c1.643-0.08,4.512-0.321,7.34,0.739C328.768,460.969,328.026,460.735,327.114,460.633z M360.55,465.543
									c-0.663,0.01-2.003,0.148-2.437-0.203C358.93,464.898,359.465,465.233,360.55,465.543z M411.834,469.174
									c-0.492,0.141-1.243,0.031-2.084-0.186C410.368,468.974,411.065,469.02,411.834,469.174z M549.719,439.727
									c-0.021,0.02-0.034,0.034-0.052,0.051C548.285,440.238,548.778,440.082,549.719,439.727z M552.515,438.607
									c0.241-0.191,0.193-0.242,0.048-0.248c-0.134,0.201-0.737,0.502-1.444,0.807
									C551.367,439.186,551.755,439.096,552.515,438.607z M234.674,441.595l0.573,0.194
									C233.907,441.771,234.292,441.69,234.674,441.595z"/>
								<path fill="#8F4F9C" d="M405.977,469.6c-0.181-0.094-0.228-0.187-0.266-0.28C405.448,469.384,405.438,469.477,405.977,469.6
									z"/>
								<path fill="#8F4F9C" d="M306.39,457.314l-0.1-0.022c-0.061,0.019-0.095,0.042-0.117,0.067L306.39,457.314z"/>
								<path fill="#8F4F9C" d="M510.393,459.451c-0.62,0.115-0.976,0.147-1.228,0.109
									C509.166,459.686,509.469,459.712,510.393,459.451z"/>
								<path fill="#8F4F9C" d="M566.199,430.469l-1.629,1.021c0.807-0.462,1.149-0.527,1.601-0.684
									C566.078,430.729,565.674,430.761,566.199,430.469z"/>
								<path fill="#8F4F9C" d="M582.098,424.41c0.207-0.204,0.502-0.331,0.705-0.533l-0.186-0.147
									C581.611,424.396,580.998,425.006,582.098,424.41z"/>
								<path fill="#8F4F9C" d="M568.537,430.977c0.334,0.273,1.309-0.466,2.434-1.222c-0.068,0.042-0.133,0.085-0.205,0.122
									C570.822,429.183,569.68,430.08,568.537,430.977z"/>
								<path fill="#8F4F9C" d="M571.234,429.582c0.35-0.229,0.709-0.456,1.07-0.647
									C572.326,428.658,571.846,429.152,571.234,429.582z"/>
								<path fill="#8F4F9C" d="M555.818,436.701c0.61-0.211,0.115-0.652,0.509-0.678c0.191-0.406-0.66,0.264-1.223,0.735
									C554.542,437.232,554.314,437.601,555.818,436.701z"/>
								<polygon fill="#8F4F9C" points="570.146,431.575 569.479,431.389 569.025,432.128 								"/>
								<path fill="#8F4F9C" d="M560.583,436.424l1.974-0.907c-0.068-0.059,0.15-0.232,0.43-0.427
									C561.802,435.711,560.468,436.317,560.583,436.424z"/>
								<path fill="#8F4F9C" d="M562.986,435.09c0.616-0.322,1.194-0.646,1.494-0.9C564.152,434.372,563.448,434.771,562.986,435.09
									z"/>
								<polygon fill="#8F4F9C" points="567.655,433.194 567.039,433.408 565.672,434.104 								"/>
								<path fill="#8F4F9C" d="M539.549,446.41l-2.12,1.059c-0.156,0.254,0.479,0.098,1.263-0.311
									C539.167,446.825,539.949,446.42,539.549,446.41z"/>
								<path fill="#8F4F9C" d="M546.674,444.795c-0.621,0.186-0.707,0.103-1.101,0.109l0.192,0.597L546.674,444.795z"/>
								<path fill="#8F4F9C" d="M540.382,447.703c-0.148,0.252-2.985,1.811-0.223,0.591
									C540.315,448.042,542.45,446.977,540.382,447.703z"/>
								<polygon fill="#8F4F9C" points="506.385,458.77 506.967,458.612 506.615,457.651 								"/>
								<path fill="#8F4F9C" d="M475.929,467.547c2.838-0.182,0.57-0.723,3.146-0.803c0.617-0.336-2.105,0.066-1.464-0.24
									C475.964,467.009,475.055,467,475.929,467.547z"/>
								<path fill="#8F4F9C" d="M477.612,466.504c0.265-0.08,0.543-0.172,0.837-0.283
									C477.97,466.357,477.748,466.439,477.612,466.504z"/>
								<polygon fill="#8F4F9C" points="124.338,445.236 122.513,445.454 123.74,445.513 								"/>
								<path fill="#8F4F9C" d="M121.119,446.783l-0.578-0.529l-0.916,0.822C120.017,446.953,120.779,446.713,121.119,446.783z"/>
								<path fill="#8F4F9C" d="M365.362,467.514l0.158-0.137c-0.256-0.205-0.675-0.275-1.514-0.415L365.362,467.514z"/>
								<polygon fill="#8F4F9C" points="341.128,463.461 341.543,463.539 340.856,462.837 								"/>
								<path fill="#8F4F9C" d="M320.701,460.818c0.824,0.165,1.819,0.201,2.646,0.367
									C321.524,460.983,320.601,460.059,320.701,460.818z"/>
							</g>
						</g>
					</g>
				</g>
			</g>
			<g opacity="0.2">
				<g>
					<g>
						<g>
							<g>
								<path fill="#8F4F9C" d="M670.98,379.223c0.611-0.479,0.117-0.604,0.152-0.735
									C670.223,379.395,671.078,379.283,670.98,379.223z"/>
								<polygon fill="#8F4F9C" points="661.375,388.284 661.447,387.997 660.209,389.62 								"/>
								<path fill="#8F4F9C" d="M651.693,395.912c1.361-0.148,3.484-2.831,5.387-3.976l0.389-0.094l0.436-1.06
									C655.838,392.489,653.311,394.917,651.693,395.912z"/>
								<path fill="#8F4F9C" d="M645.52,398.682c0.492-0.02-1.002,1.04,1.285-0.844c-0.137,0.067-0.18,0.079-0.262,0.114
									C646.33,398.113,646.033,398.329,645.52,398.682z"/>
								<path fill="#8F4F9C" d="M646.543,397.952C647.564,397.146,645.723,398.277,646.543,397.952L646.543,397.952z"/>
								<path fill="#8F4F9C" d="M641.795,401.631l1.234-1.213c-0.387,0.08-1.637,0.951-1.25,0.521
									C640.443,402.087,640.83,402.005,641.795,401.631z"/>
								<path fill="#8F4F9C" d="M640.795,403.012l0.654-0.61C641.283,402.438,641.078,402.558,640.795,403.012z"/>
								<path fill="#8F4F9C" d="M642.836,401.109l-1.387,1.292c0.268-0.054,0.426,0.117,0.648-0.576
									C642.1,402.087,642.279,401.704,642.836,401.109z"/>
								<path fill="#8F4F9C" d="M643.76,400.566c0.867-0.444,1.928-1.101,0.688,0.115
									C647.035,398.662,646.344,398.547,643.76,400.566z"/>
								<path fill="#8F4F9C" d="M651.641,396.884l1.148-0.621l0.738-0.871C653.158,395.827,651.441,396.755,651.641,396.884z"/>
								<path fill="#8F4F9C" d="M632.947,407.592c0,0.185,0.707,0.003,0.924,0.089l0.939-0.861
									C634.215,407.105,633.148,407.727,632.947,407.592z"/>
								<path fill="#8F4F9C" d="M633.871,407.682l-1.406,1.289C633.873,408.034,634.057,407.757,633.871,407.682z"/>
								<polygon fill="#8F4F9C" points="641.016,403.833 643.203,401.549 640.535,404.194 								"/>
								<polygon fill="#8F4F9C" points="627.002,411.682 627.684,410.783 626.414,412.306 								"/>
								<path fill="#8F4F9C" d="M623.098,414.454c0.498-0.678-1.182,0.183-0.582-0.424c-1.061,0.746-1.854,1.555-2.568,2.283
									C620.77,415.634,621.736,415.049,623.098,414.454z"/>
								<path fill="#8F4F9C" d="M618.717,417.497c0.408-0.346,0.801-0.749,1.23-1.183
									C619.51,416.675,619.098,417.057,618.717,417.497z"/>
								<path fill="#8F4F9C" d="M629.77,410.744c-0.172,0.007-0.541-0.03-1.471,0.49l0.855-0.071
									C629.342,411.035,629.555,410.89,629.77,410.744z"/>
								<path fill="#8F4F9C" d="M629.184,411.159l-0.029,0.003c-0.672,0.45-1.137,0.761-1.336,0.895
									C627.99,411.944,628.4,411.673,629.184,411.159z"/>
								<path fill="#8F4F9C" d="M629.926,410.638c-0.057,0.039-0.1,0.067-0.156,0.105
									C629.854,410.737,629.896,410.724,629.926,410.638z"/>
								<path fill="#8F4F9C" d="M636.779,406.461c-0.75,0.864-2.502,2.412-0.459,1.402
									C636.795,407.152,635.637,407.745,636.779,406.461z"/>
								<path fill="#8F4F9C" d="M630.99,410.551l1.713-1.065c-0.098-0.07-0.49,0.002-0.105-0.409L630.99,410.551z"/>
								<polygon fill="#8F4F9C" points="630.258,411.223 630.99,410.551 630.357,410.946 								"/>
								<path fill="#8F4F9C" d="M621.824,415.968c-0.625,0.625-1.416,1.153-2.301,1.759c1.012-0.552,2.037-1.159,2.984-1.771
									C622.568,415.758,622.85,415.289,621.824,415.968z"/>
								<path fill="#8F4F9C" d="M625.438,413.69c-0.045,0.041-0.102,0.092-0.145,0.13
									C625.41,413.783,625.496,413.738,625.438,413.69z"/>
								<path fill="#8F4F9C" d="M610.619,423.39c0.064-0.007,0.121-0.014,0.188-0.021c-0.002-0.028-0.008-0.053-0.006-0.083
									L610.619,423.39z"/>
								<path fill="#8F4F9C" d="M622.715,415.917c0.773-0.396,1.148-0.766,1.477-1.161c-0.504,0.412-1.068,0.797-1.684,1.2
									C622.48,416.045,622.492,416.085,622.715,415.917z"/>
								<path fill="#8F4F9C" d="M616.354,419.258c0.426-0.168,0.895-0.381,1.383-0.612
									C617.293,418.771,616.428,419.079,616.354,419.258z"/>
								<path fill="#8F4F9C" d="M624.988,413.888c0.031-0.03,0.061-0.057,0.096-0.089
									C624.799,413.884,624.854,413.901,624.988,413.888z"/>
								<path fill="#8F4F9C" d="M624.988,413.888c-0.332,0.304-0.561,0.591-0.797,0.869c0.414-0.328,0.789-0.644,1.102-0.936
									C625.188,413.856,625.074,413.879,624.988,413.888z"/>
								<path fill="#8F4F9C" d="M609.285,427.373c-0.07-0.418,1.699-1.896,3.617-2.542c1.496-1.272-0.266-1.691-2.096-1.462
									c0.037,0.178,0.123,0.313-1.465,1.528c0.709-0.17,4.059-1.822,2.803-0.66c-2.162,1.522-1.932,0.985-3.143,1.46
									c1.193-0.135-2.516,2.332-1.654,2.663l1.865-1.405C609.309,427.03,608.678,427.615,609.285,427.373z"/>
								<path fill="#8F4F9C" d="M614.035,421.404l0.662-0.484c-0.82,0.446-1.465,0.673-2.658,1.075
									c-1.059,0.869-1.229,1.129-1.238,1.292c0,0,0.879-0.486,1.734-1.017c0.852-0.534,1.705-1.067,1.705-1.067L614.035,421.404z"
									/>
								<path fill="#8F4F9C" d="M617.777,418.93c-0.301,0.708-1.855,1.928-0.594,1.669c2.006-1.328,1.223-1.216,2.326-2.15
									c-3.197,2.189,0.805-0.804-1.68,0.507c0.6-0.474,1.162-0.863,1.693-1.228c-0.613,0.333-1.213,0.643-1.787,0.919
									c0.035-0.01,0.061-0.017,0.09-0.025l0.014-0.011v0.008c0.17-0.045,0.234-0.047,0.059,0.028
									c-0.008,0.012-0.047,0.039-0.063,0.051c0.01,0.065-0.021,0.147-0.059,0.231c-0.99,0.533-0.209,0.001,0.059-0.231
									c0-0.024,0.014-0.058,0.004-0.079l-0.014,0.003l-3.129,2.299C615.418,420.525,616.273,419.958,617.777,418.93z"/>
								<path fill="#8F4F9C" d="M635.158,409.811c-0.121,0.038-0.135,0.009-0.16-0.011
									C634.82,409.986,634.764,410.07,635.158,409.811z"/>
								<path fill="#8F4F9C" d="M633.689,410.51c0.199-0.21,0.293-0.485,1.076-0.973c0.73-0.348,0.115,0.171,0.232,0.263
									c0.391-0.409,1.416-1.356-0.135-0.538l-0.191,0.205c-1.375,0.771-3.338,1.474-3.146,1.27
									C632.123,410.795,632.613,410.792,633.689,410.51z"/>
								<path fill="#8F4F9C" d="M625.748,414.98c0,0-0.637,0.504-1.271,1.009c-0.65,0.486-1.299,0.972-1.299,0.972
									s0.398-0.146,0.797-0.292c0.4-0.142,0.793-0.299,0.793-0.299l-0.193-0.139C626.139,415.256,625.656,415.254,625.748,414.98z
									"/>
								<polygon fill="#8F4F9C" points="610.191,423.396 610.32,422.79 609.055,424.288 								"/>
								<polygon fill="#8F4F9C" points="606.619,425.581 606.549,425.161 605.721,425.931 								"/>
								<path fill="#8F4F9C" d="M377.104,461.831l-0.962-0.038C376.594,461.83,376.887,461.838,377.104,461.831z"/>
								<path fill="#8F4F9C" d="M383.939,462.918l0.197-0.168C383.802,462.811,383.66,462.869,383.939,462.918z"/>
								<path fill="#8F4F9C" d="M510.904,460.736c-1.42-0.16-3.02-0.499-2.791-0.083l0.48,0.366
									C509.533,460.799,510.269,460.736,510.904,460.736z"/>
								<path fill="#8F4F9C" d="M440.531,466.692c0.13,0.048,0.266,0.099,0.4,0.147c0.344-0.135,0.667-0.262,0.958-0.377
									C441.48,466.532,441.017,466.61,440.531,466.692z"/>
								<path fill="#8F4F9C" d="M439.458,468.441l-1.82-0.396C438.044,468.17,438.629,468.301,439.458,468.441z"/>
								<path fill="#8F4F9C" d="M339.797,456.004l-1.172,0.244C340.341,456.545,339.624,456.193,339.797,456.004z"/>
								<path fill="#8F4F9C" d="M568.471,444.982c-1.16,0.303-2.046,0.627-2.829,0.904
									C567.059,445.586,568.258,445.459,568.471,444.982z"/>
								<path fill="#8F4F9C" d="M380.5,457.705c-0.587-0.014-0.847,0.035-0.845,0.133
									C380.258,457.858,380.606,457.829,380.5,457.705z"/>
								<path fill="#8F4F9C" d="M562.426,447.071c0.212-0.032,0.412-0.082,0.625-0.121c0.789-0.368,1.586-0.724,2.591-1.063
									C564.583,446.079,563.41,446.389,562.426,447.071z"/>
								<path fill="#8F4F9C" d="M204.601,442.266c-0.1-0.015-0.219-0.019-0.31-0.037
									C204.265,442.289,204.401,442.285,204.601,442.266z"/>
								<path fill="#8F4F9C" d="M164.59,442.939c0.383-0.103,1.016-0.227,1.612-0.35
									C165.905,442.617,165.417,442.716,164.59,442.939z"/>
								<path fill="#8F4F9C" d="M591.854,433.662C592.621,433.216,591.955,433.553,591.854,433.662L591.854,433.662z"/>
								<path fill="#8F4F9C" d="M596.469,433.121c-0.145,0.133-0.24,0.256-0.213,0.354
									C596.27,433.349,596.348,433.231,596.469,433.121z"/>
								<path fill="#8F4F9C" d="M555.02,452.674c-0.025,0.009-0.045,0.016-0.073,0.025
									C555.224,452.688,555.175,452.688,555.02,452.674z"/>
								<path fill="#8F4F9C" d="M593.121,433.203c-0.318,0.111-0.676,0.254-1.059,0.425
									C592.24,433.57,592.563,433.443,593.121,433.203z"/>
								<path fill="#8F4F9C" d="M592.867,433.107c0.277-0.131,0.494-0.234,0.701-0.332
									C593.633,432.658,593.525,432.666,592.867,433.107z"/>
								<path fill="#8F4F9C" d="M590.777,434.271c0.443-0.247,0.869-0.454,1.285-0.643c-0.168,0.057-0.242,0.069-0.209,0.034
									C591.627,433.791,591.309,433.971,590.777,434.271z"/>
								<path fill="#8F4F9C" d="M277.412,444.589c-0.057-0.021-0.122-0.043-0.185-0.065
									C276.31,444.597,276.707,444.61,277.412,444.589z"/>
								<path fill="#8F4F9C" d="M488.33,467.95c0.04-0.011,0.063-0.017,0.101-0.026c-0.042-0.003-0.096-0.006-0.134-0.008
									L488.33,467.95z"/>
								<path fill="#8F4F9C" d="M485.125,468.465c1.337-0.621,2.12-0.602,3.171-0.549l-1.162-1.184L485.125,468.465z"/>
								<path fill="#8F4F9C" d="M360.739,459.277l2.163,0.764c-2.795,0.175-4.705-0.375-2.704,0.521
									c0.537-1.273,8.693,1.311,9.224,0.021l1.424,0.523c-0.419-0.082-0.5-0.014-0.914-0.097c2.755,1.113,2.28-0.612,5.938,0.157
									c1.269,0.306,2.136,0.642,1.234,0.663l2.917,0.118c0.83,0.158,0.59,0.359-0.236,0.203l4.39,0.563l-0.039,0.034
									c0.657-0.118,2.121-0.234,2.831-0.271c1.083,0.356-0.579,0.061-0.319,0.27l2.471,0.031c0.937,0.494-1.121,0.536-2.789,0.239
									c2.069,1.669,2.058-0.026,6.838,1.448l-2.317-0.152c1.367,0.988,3.203,0.937,5.736,1.77
									c-0.586-0.332-5.034-1.902-2.349-1.881c0.729,0.202,1.703,0.383,3.162,0.305c-0.051,0.48,1.354,0.551,3.096,0.76
									l-0.201,0.618c1.904,0.075,1.8-0.286,2.944-0.433c2.091,0.316,2.467,0.861,2.912,1.336c3.354,0.508-2.229-1.07,1.768-0.707
									c2.766,0.596,4.769,0.535,8.16,0.501c1.938,0.423-0.383,0.353,0.301,0.608l1.791-0.326c0.424,0.057,0.271,0.198,0.194,0.27
									c1.484-0.046,0.183-0.619,2.501-0.561c0.683-0.648,4.643,1.43,7.568,0.875c0.689,0.242-0.371,0.362-0.175,0.627
									c3.96-0.193,3.396-0.143,6.661-0.625l2.718,0.594c-1.987-0.616,0.621-0.992,2.894-1.353
									c-0.702-0.255-1.299-0.499-1.702-0.622c0,0,0.9-0.02,1.802-0.078c0.9-0.05,1.801-0.1,1.801-0.1
									c0.428,0.123,0.058,0.328-0.543,0.57c0.247-0.047,0.48-0.092,0.665-0.127c1.273,0.288,0.593,0.631-0.345,0.95
									c-0.43-0.149-0.859-0.3-1.277-0.446c-0.907,0.358-1.762,0.742-1.596,1.123c0.237-0.055,0.692-0.102,1.19-0.117
									c-0.238,0.096-0.392,0.184-0.287,0.252c0.119,0.072,0.503-0.055,1.1-0.193l0.787,0.745l0.211-0.274l4.707,0.635
									c3.406-0.566,6.364-1.65,11.703-1.859c-1.326,0.518-0.286,0.854-0.357,1.475c-1.461-0.676-4.156,0.222-6.939,0.05
									c1.45,0.089,1.126,0.38,0.755,0.478l4.97-0.527c-0.114,0.492,1.053,0.424,2.35,0.59c-0.98-0.982,3.692-0.736,5.703-1.081
									c0.131,0.335-0.347,0.687-2.81,0.651c2.729,0.703,3.489-1.242,6.162-0.651c-0.6,0.02-0.925-0.026-1.158,0.149
									c1.395-0.325,4.828-0.153,4.032,0.154l-0.599,0.019c0.998,0.005,2.256,0.015,3.59-0.042
									c1.333-0.086,2.742-0.199,4.043-0.336c2.603-0.273,4.771-0.643,5.038-1.084c0.048,0.107-0.455,1.054-0.686,1.24
									c0,0,1.727-0.82,3.454-1.639c0.857-0.409,1.715-0.818,2.358-1.125c0.638-0.33,1.063-0.551,1.063-0.551
									c-0.564,0.781,1.982,2.306-1.284,3.004c0.958,0.059,2.14,0.021,4.114-0.43c-0.657-0.037-1.702-0.887-0.828-1.044
									c2.491,0.561,1.715,0.261,4.77,0.642c-0.983-0.056-0.026-1.307,1.5-1.427c-0.221,0.194,0.25,1.11-0.296,1.287l3.674-1.51
									c-0.924,0.299-0.056,0.964,0.837,1.19c-0.213-0.098,0.615-0.146,1.611-0.275c0.997-0.131,2.172-0.275,2.669-0.406
									l-1.64-0.018c4.301-0.476,3.994-2.201,8.217-2.777c-0.471,0.306-1.039,1.602,1.141,1.416
									c0.447-0.363,1.429-1.195,2.738-2.099c1.303-0.952,2.933-1.953,4.728-2.54l0.77,0.18l2.748-0.936
									c-1.57,1.186-6.176,4.021-8.802,5.207c1.643,0.002,0.512,0.312,2.889-0.183c0.898,0.134-1.213,0.722-1.913,0.881
									l5.591-0.923c-0.375-0.609,4.109-1.516,3.779-2.02l-5.877,1.895c-0.363-0.611,3.107-2.572,7.027-3.241
									c1.053,0.061-0.486,1.319-0.359,1.521c0.464-0.318,3.624-1.182,4.006-1.16c0,0-0.391,0.192-0.781,0.385
									c-0.39,0.2-0.787,0.367-0.787,0.367c2.229-0.271,3.318-1.755,6.065-1.784c0.904-0.187,2.894,0.154,2.948-0.27
									c-1.661-0.368-2.528-2.596-1.713-3.398c0.314-0.045,4.846-0.438,5.945-0.41c0.804,0.066,0.362,0.578-0.112,1.09
									c-0.473,0.519-0.997,0.972-0.298,1.068c0.008-0.177,0.745-0.652,1.06-0.823c0.968-0.137-0.227,0.666,1.763-0.039
									c0.143-0.758,4.105-1.215,0.786-0.848c1.907-0.796,2.128-0.515,4.427-1.26c-0.864-0.192,1.61-2.07,3.498-2.86
									c-0.061,0.197,0.455,0.285,0.696,0.301c3.957-1.391,6.181-1.879,9.862-3.228c0.398,0.029,2.249-0.438,1.599,0.112
									c0.49-0.299,0.889-0.701,1.992-1.201c2.379-0.371-2.451,1.145-0.543,1.102c-0.005-0.429,2.682-1.736,4.172-2.641
									c-0.729-0.363-3.699,1.467-5.212,2.343c-0.302-0.751,2.119-2.769,5.708-4.715c2.893-1.46,1.508-0.05,1.979-0.38
									c2.83-1.125,3.877-1.954,4.785-2.769c0.918-0.79,1.738-1.468,4.139-2.29c2.035-0.387,0.547,0.924,1.115,1.08
									c-2.295,1.336-3.803,1.459-5.404,2.258l2.094-0.729c-0.688,0.518-2.207,1.444-3.158,1.675
									c0.879-0.1,3.195-1.236,5.871-2.496c1.34-0.63,2.764-1.299,4.121-1.937c1.371-0.608,2.672-1.186,3.754-1.666
									c0.654-0.559,1.838-1.409,1.137-1.276l-1.275,0.774c-1.404,0.265,2.186-1.862,0.436-1.147
									c1.613-1.218,3.348-2.698,5.93-3.813l0.76,0.286c-0.141-0.128-1.789,0.551-2.395,1.09c0.895-0.793,4.191-1.318,4.926-2.63
									l-1.938,0.565c1.631-1.182,3.395-3.06,5.629-4.144c-1.273,0.053-0.457,0.353-2.324,0.638c0.877-0.008-0.49,0.793-1.754,1.54
									c-1.277,0.722-2.479,1.346-1.17,1.174c-1.99,0.14-2.922,1.181-5.33,1.685c0.16,0.143,0.918-0.057-0.955,0.842
									c-0.055,0.097-0.213,0.268-0.316,0.374c-0.059,0.024-0.08,0.032-0.131,0.054c0.041-0.013,0.072-0.021,0.111-0.033
									c-0.064,0.068-0.068,0.078,0.043-0.014c0.477-0.156,0.879-0.254,1.076-0.231c-0.689,0.899-3.611,2.46-4.486,3.206
									c-1.141,0.482,0.354-0.441-0.344-0.322l-1.34,1.051c-0.354-0.328-3.283,0.758-0.789-0.74l-2.357,1.119
									c-1.494,0.442-3.438,1.27-4.529,2.009c-1.146,0.447-2.59,1.806-1.771,1.019c0,0-0.223,0.127-0.559,0.318
									c-0.33,0.198-0.783,0.439-1.242,0.665c-0.912,0.464-1.826,0.929-1.826,0.929l-0.08-0.088
									c-1.869,0.766-3.707,1.75-5.652,2.679c-0.973,0.464-1.972,0.915-3.012,1.314c-1.049,0.376-2.158,0.651-3.312,0.867
									c-1.233,0.575-2.506,1.19-4.684,1.856l-0.547-0.213c-0.795,0.365-2.056,0.726-3.187,1.074
									c-1.126,0.365-2.164,0.597-2.453,0.916c-2.122-0.45-8.124,2.319-11.123,2.991l0.025,0.517
									c-2.054,0.494-3.977,1.133-6.469,1.979l0.266,0.395c-2.112,0.907-5.703,1.196-9.218,1.872
									c0.203-0.216,1.103-0.351,1.755-0.376c-2.205-0.073-4.371,0.551-6.493,1.201c-1.06,0.326-2.108,0.657-3.138,0.91
									c-0.516,0.125-1.023,0.237-1.529,0.305c-0.51,0.053-1.012,0.074-1.508,0.055c-0.929,0.306-1.632,0.355-2.32,0.345
									c0.089-0.015,0.167-0.034,0.232-0.059c-0.098,0.013-0.243,0.033-0.393,0.054c-0.435-0.013-0.884-0.035-1.365-0.035
									c0.416,0.047,0.814,0.078,1.154,0.068c-0.736,0.121-1.846,0.344-2.928,0.621l-0.537-0.406
									c-0.088,0.018-0.159,0.033-0.252,0.051c-1.1-0.014-0.832,0.357-0.205,0.629c-0.541,0.162-1.035,0.332-1.412,0.506
									c-0.98-0.643-2.848,0.705-4.15,0.043c-0.694,0.478-5.516,0.875-6.018,1.781c-0.05-0.106-0.381-0.125,0.216-0.193
									c-1.245,0.031-2.487,0.062-3.572,0.414l-0.581-0.555l-2.621,1.098c-1.671-0.195-2.367-0.39-0.778-0.985
									c-3.876,0.999-3.169,0.473-6.473,1.397l0.138-0.404c-1.195,0.086-3.082,0.729-3.823,0.445
									c-1.362-0.321-4.669-0.05-8.519-0.059c-3.845,0.053-8.22,0.123-11.662-0.162c1.334,1.178-3.196-0.545-3.473,0.344
									c-0.398-0.281-1.354-0.451-0.239-0.675c-3.513,0.202-5.256-0.465-7.7,0.173c-0.393-0.293,0.763-0.375,0.411-0.553
									c-0.283,0.049-1.122,0.195-1.48,0.016c-0.351-0.178,0.521-0.21,1.079-0.309c-3.577-0.097-3.976,0.738-4.272,1.523
									c-1.804-0.456-2.712-0.418-4.054,0.022c-0.62-0.301-1.659-0.641,0.574-0.593c-1.253-0.117-7.63-0.869-7.804-0.24
									c-0.381-0.188-1.75-0.153-2.085-0.117c-2.808-0.278-3.05-0.357-5.815-0.531l0.756,0.169
									c-1.157,0.669-2.313-0.013-4.545-0.134l0.072-0.072c-5.042-1.085-2.23,0.035-7.19-1.12l0.221,0.505
									c-0.586,0.996-4.386-1.104-7.342-1.071l1.02,0.399c-1.637,0.151-4.277-1.917-5.85-2.264c-0.335-0.137,0.567-0.068,1.06-0.07
									c-4.091-1.166-0.621,0.551-3.75,0.274c-0.528-0.413,0.853-0.754-1.23-1.1c-1.002-0.405-6.219,0.271-8.977-0.813
									c0.59,0.352,1.177,0.701-0.295,0.682c-2.228-0.23-5.831-1.854-7.95-1.367c-0.27-0.115-0.366-0.199-0.367-0.266
									c-1.721-0.057-5.543-0.512-6.632-0.236c-1.292-1.896-10.627-0.93-10.337-2.443l-5.202-0.804l0.162-0.131
									c-3.299-0.662-4.534-0.507-5.762-0.348c-0.749-0.235-0.165-0.278-0.088-0.347c-4.793-1.145-5.285-1.162-9.479-1.121
									l-0.338-0.561c-1.151,0.092-6.872-1.99-11.729-2.24c0.056-0.048,0.171-0.126,0.561-0.129
									c-5.445-0.363-12.593-3.543-14.854-2.099l-3.611-0.141c4.554,0.888-0.809,0.661,1.025,1.265
									c-1.815-0.189-4.563-1.298-2.337-1.027l0.331,0.146c0.964-0.794-5.633-1.263-5.41-1.869
									c-9.026-1.374-17.758-3.211-26.255-4.338l0.884,0.855l-2.954-0.435c-0.758-0.258-0.972-0.709,1.137-0.396
									c-1.058-0.572-3.593-0.088-3.67,0.059c-4.109-0.784,1.722-0.654,0.453-0.822l-1.734-0.15l0.38,0.131
									c-1.437,0.131-1.597,0.432-4.137,0.094c-1.593-0.336-0.775-0.545-1.406-0.648c0.009-0.049-0.201-0.105-0.971-0.131
									l-3.743-0.441l1.439,0.727c-1.69,0.114-3.518-0.387-1.857,0.438c-2.428-1.322-13.95-1.63-15.488-2.034
									c-2.364,0.278-4.664,0.131-7.515-0.092c0.704,0.162,1.091,0.837-1.361,0.608c0.966-1.308-4.481-0.747-6.443-1.785
									c0.881,0.353-0.875,0.327-2.503,0.341c-1.63,0.021-3.132,0.137-1.743,0.598c-2.056-0.131-0.115-0.503-1.673-0.836
									c-2.458,0.249-5.156,0.088-8.006-0.004c-2.85-0.07-5.851-0.208-8.884-0.037c-0.088,0.181,0.935,0.4-0.355,0.725
									l-3.237-0.723c-1.196,0.145-1.052,1.066-3.271,0.564c0.317,0.132,0.79,0.332-0.008,0.428
									c-5.955-0.072-12.009,0.604-18.045,1.455c-3.029,0.348-6.038,0.881-9.066,1.25c-1.511,0.203-3.036,0.316-4.547,0.504
									c-1.513,0.182-3.03,0.324-4.556,0.418c1.676,0.019,0.608,0.262-0.617,0.516c0.814-0.076,0.067,0.43,0.271,0.633
									c0,0-1.273,0.08-2.547,0.161c-1.28,0.06-2.543,0.218-2.543,0.218c-0.751,0.859-5.271,1.307-5.634,2.043l1.529-0.482
									c-1.885,1.218,3.278,0.922,3.183,1.93c2.106-1.438,6.325-0.082,9.875-2.018c0.873,0.027-0.657,0.443-0.168,0.574
									c0.887-0.572,2.023-0.955,4.226-1.082l-0.228,0.139c3.033-0.522,5.219-0.785,7.501-1.016
									c2.289-0.188,4.685-0.269,8.125-0.547l-0.559-0.411c1.483-0.108,1.808-0.002,2.511,0.041
									c1.623-0.905-4.149,0.437-2.689-0.525c0.517,0.183,1.425,0.198,2.52,0.134c1.099-0.029,2.385-0.127,3.652-0.221
									c2.534-0.188,4.991-0.352,5.689,0.141c2.281-0.116-0.705-0.518,1.578-0.625l0.623,0.267l0.555-0.409
									c1.503-0.01,2.276,0.324,2.343,0.572c-0.364-0.013-1.027,0.119-1.415,0.16c1.954,0.258,5.458-0.391,6.129-0.297
									l-2.198-0.082c1.553-0.165,3.197-0.223,4.882-0.258s3.41-0.07,5.128-0.105c3.437-0.059,6.849-0.016,9.873-0.303
									l-0.454-0.229c4.624-0.322,3.686,0.359,8.754,0.337l-0.187,0.046c1.022-0.18,2.382-0.264,3.766-0.14
									c-1.29,0.185,2.376,0.653,0.686,0.841c5.017-0.141,2.487-0.198,5.843-0.826l0.736,0.415c1.149-0.271,1.256-0.43,3.791-0.319
									c-2.096,0.146,1.568,0.695-0.784,0.924c5.223,1.243,7.937-0.184,10.25,1.264c2.529-0.774-4.522-1.033-3.142-1.104
									c-1.111-0.441,2.079-0.578,3.731-0.297c1.691,0.201,2.746,1.584,6.99,2.021c-0.422-0.054-0.458,0.02-0.879-0.034
									c1.557,0.446,3.15,0.016,5.048,0.668c1.165-0.487,2.523,0.335,2.934-0.414l-3.916-0.278c2.228,0.07,4.42-0.653,7.997,0.291
									c-0.304,0.12-1.411,0.186-2.168,0.202c1.032,0.373,2.064,0.118,3.135,0.503c-0.415,0.736-4.747-0.458-7.185-0.117
									c1.099,0.467,4.539-0.041,3.246,0.67c1.843-0.869,4.153,0.688,7.13,0.24l-0.253,0.445c0.463-0.014,1.434-0.111,2.268,0.012
									l-1.596,0.408c2.394-0.223,4.407,1.076,6.669,1.115c-4.656-0.662-0.964-0.718-2.884-1.348
									c5.836,0.214,3.128,1.695,9.583,2.433c-0.878-0.076-3.222-0.772-1.829-0.79c1.209,0.277,2.795,0.715,3.508,1.076
									c4.269,0.564-0.579-0.584,1.277-0.591c1.36,0.797,2.125,0.093,4.021,0.2l-0.063,0.479c4.799,1.078,1.445-0.788,5.75,0.291
									l-1.952,0.358l2.302,0.202l-0.558,0.465c2.54,0.004,3.294,0.23,5.692,0.783c-0.507-0.431,0.461-0.811,2.609-0.461
									c1.416,0.53-0.896,0.313,2.157,0.76c-0.737,0.182-1.551,0.428-2.801-0.234c-0.162,0.133-0.727,0.184-0.893,0.313
									c1.521,0.592,3.946,0.745,5.048,0.927c-0.421-0.09-0.923-0.201-1.171-0.313l4.521,0.088
									c0.664,0.299,0.088,0.346-0.481,0.395c0.902,0.102,1.557-0.01,2.877,0.176c-0.406,0.328-0.394,0.741-2.283,0.602
									l4.273,0.298c0.251,0.216,2.075,0.835,1.505,0.882c2.288,0.629,5.842,0.242,8.877,1.08c0.173-0.047,0.508-0.063,1.174-0.004
									c2.886,0.595,5.377,1.514,8.911,1.582l1.833,1.031c2.723,0.31-2.493-1.331,2.041-0.814c3.219,0.32,1.086,0.793,2.169,1.176
									c1.643-0.08,4.513-0.322,7.34,0.738C362.393,459.612,361.651,459.379,360.739,459.277z M394.175,464.186
									c-0.663,0.012-2.003,0.148-2.437-0.202C392.554,463.541,393.089,463.877,394.175,464.186z M445.459,467.818
									c-0.492,0.14-1.244,0.03-2.084-0.187C443.993,467.617,444.69,467.663,445.459,467.818z M583.344,438.37
									c-0.02,0.021-0.035,0.034-0.051,0.051C581.91,438.881,582.402,438.725,583.344,438.37z M586.139,437.251
									c0.242-0.192,0.193-0.243,0.049-0.247c-0.133,0.199-0.738,0.501-1.443,0.805
									C584.992,437.829,585.379,437.738,586.139,437.251z M268.299,440.238l0.573,0.195
									C267.532,440.415,267.917,440.334,268.299,440.238z"/>
								<path fill="#8F4F9C" d="M439.601,468.242c-0.181-0.093-0.228-0.186-0.266-0.279
									C439.073,468.027,439.063,468.121,439.601,468.242z"/>
								<path fill="#8F4F9C" d="M340.014,455.959l-0.1-0.023c-0.061,0.02-0.095,0.043-0.117,0.068L340.014,455.959z"/>
								<path fill="#8F4F9C" d="M544.018,458.094c-0.62,0.115-0.976,0.148-1.228,0.109
									C542.791,458.33,543.094,458.355,544.018,458.094z"/>
								<path fill="#8F4F9C" d="M599.824,429.111l-1.629,1.023c0.805-0.463,1.148-0.529,1.6-0.686
									C599.701,429.372,599.299,429.404,599.824,429.111z"/>
								<path fill="#8F4F9C" d="M615.723,423.053c0.207-0.204,0.502-0.331,0.705-0.533l-0.186-0.147
									C615.236,423.039,614.623,423.649,615.723,423.053z"/>
								<path fill="#8F4F9C" d="M602.162,429.619c0.334,0.274,1.309-0.465,2.434-1.221c-0.068,0.042-0.133,0.084-0.205,0.121
									C604.447,427.826,603.303,428.724,602.162,429.619z"/>
								<path fill="#8F4F9C" d="M604.859,428.226c0.348-0.229,0.709-0.456,1.07-0.647
									C605.949,427.301,605.469,427.796,604.859,428.226z"/>
								<path fill="#8F4F9C" d="M589.441,435.344c0.611-0.211,0.117-0.651,0.51-0.677c0.191-0.406-0.66,0.263-1.223,0.735
									C588.166,435.876,587.939,436.244,589.441,435.344z"/>
								<polygon fill="#8F4F9C" points="603.771,430.219 603.104,430.032 602.65,430.771 								"/>
								<path fill="#8F4F9C" d="M594.207,435.067l1.975-0.907c-0.07-0.059,0.148-0.232,0.428-0.427
									C595.428,434.354,594.094,434.961,594.207,435.067z"/>
								<path fill="#8F4F9C" d="M596.609,433.733c0.617-0.321,1.195-0.646,1.496-0.901
									C597.777,433.016,597.072,433.414,596.609,433.733z"/>
								<polygon fill="#8F4F9C" points="601.279,431.838 600.664,432.051 599.297,432.748 								"/>
								<path fill="#8F4F9C" d="M573.174,445.053l-2.119,1.06c-0.156,0.253,0.479,0.097,1.262-0.312
									C572.791,445.469,573.572,445.063,573.174,445.053z"/>
								<path fill="#8F4F9C" d="M580.299,443.438c-0.621,0.186-0.707,0.104-1.102,0.11l0.193,0.597L580.299,443.438z"/>
								<path fill="#8F4F9C" d="M574.008,446.348c-0.148,0.25-2.986,1.809-0.223,0.59
									C573.939,446.686,576.074,445.62,574.008,446.348z"/>
								<polygon fill="#8F4F9C" points="540.009,457.412 540.592,457.256 540.239,456.295 								"/>
								<path fill="#8F4F9C" d="M509.554,466.189c2.838-0.181,0.57-0.721,3.146-0.801c0.618-0.338-2.104,0.065-1.463-0.242
									C509.589,465.652,508.679,465.645,509.554,466.189z"/>
								<path fill="#8F4F9C" d="M511.237,465.146c0.265-0.08,0.542-0.172,0.837-0.282C511.595,465,511.373,465.084,511.237,465.146z
									"/>
								<polygon fill="#8F4F9C" points="157.963,443.879 156.138,444.098 157.364,444.156 								"/>
								<path fill="#8F4F9C" d="M154.743,445.426l-0.578-0.529l-0.916,0.824C153.642,445.597,154.404,445.357,154.743,445.426z"/>
								<path fill="#8F4F9C" d="M398.987,466.156l0.158-0.136c-0.256-0.205-0.675-0.274-1.514-0.415L398.987,466.156z"/>
								<polygon fill="#8F4F9C" points="374.752,462.104 375.167,462.183 374.48,461.48 								"/>
								<path fill="#8F4F9C" d="M354.326,459.462c0.824,0.165,1.819,0.202,2.646,0.368
									C355.149,459.627,354.226,458.703,354.326,459.462z"/>
							</g>
						</g>
					</g>
				</g>
			</g>
			<path fill="none" d="M100.414,448.775c100.212-26.202,204.658,19.65,304.869,19.65c84.685,0,136.91-24.891,201.834-75.981
				c4.234-3.93,8.471-6.551,12.703-10.48"/>
		</g>
	</g>
</g>
</svg>
